<svg xmlns="http://www.w3.org/2000/svg" xmlns:xlink="http://www.w3.org/1999/xlink" width="500" zoomAndPan="magnify" viewBox="0 0 375 374.999991" height="500" preserveAspectRatio="xMidYMid meet" version="1.0"><defs><g/><clipPath id="c9cef3d7ca"><path d="M 28.824219 138.683594 L 95.585938 138.683594 L 95.585938 205.445312 L 28.824219 205.445312 Z M 28.824219 138.683594 " clip-rule="nonzero"/></clipPath><clipPath id="a6d7dfc442"><path d="M 62.207031 138.683594 C 43.769531 138.683594 28.824219 153.628906 28.824219 172.0625 C 28.824219 190.5 43.769531 205.445312 62.207031 205.445312 C 80.640625 205.445312 95.585938 190.5 95.585938 172.0625 C 95.585938 153.628906 80.640625 138.683594 62.207031 138.683594 Z M 62.207031 138.683594 " clip-rule="nonzero"/></clipPath><clipPath id="8758fc7aba"><path d="M 279.414062 138.683594 L 346.175781 138.683594 L 346.175781 205.445312 L 279.414062 205.445312 Z M 279.414062 138.683594 " clip-rule="nonzero"/></clipPath><clipPath id="3603acc5e9"><path d="M 312.792969 138.683594 C 294.359375 138.683594 279.414062 153.628906 279.414062 172.0625 C 279.414062 190.5 294.359375 205.445312 312.792969 205.445312 C 331.230469 205.445312 346.175781 190.5 346.175781 172.0625 C 346.175781 153.628906 331.230469 138.683594 312.792969 138.683594 Z M 312.792969 138.683594 " clip-rule="nonzero"/></clipPath><clipPath id="15a409f01d"><path d="M 296.746094 156.015625 L 328.996094 156.015625 L 328.996094 188.265625 L 296.746094 188.265625 Z M 296.746094 156.015625 " clip-rule="nonzero"/></clipPath><clipPath id="cf094d1777"><path d="M 46.761719 155.710938 L 77.511719 155.710938 L 77.511719 186.460938 L 46.761719 186.460938 Z M 46.761719 155.710938 " clip-rule="nonzero"/></clipPath><clipPath id="609ba9580b"><path d="M 112.28125 137.773438 L 179.039062 137.773438 L 179.039062 204.53125 L 112.28125 204.53125 Z M 112.28125 137.773438 " clip-rule="nonzero"/></clipPath><clipPath id="b8526f91e1"><path d="M 145.660156 137.773438 C 127.226562 137.773438 112.28125 152.71875 112.28125 171.152344 C 112.28125 189.585938 127.226562 204.53125 145.660156 204.53125 C 164.09375 204.53125 179.039062 189.585938 179.039062 171.152344 C 179.039062 152.71875 164.09375 137.773438 145.660156 137.773438 Z M 145.660156 137.773438 " clip-rule="nonzero"/></clipPath><clipPath id="cb962c5d2e"><path d="M 128.699219 156 L 162.449219 156 L 162.449219 187.03125 L 128.699219 187.03125 Z M 128.699219 156 " clip-rule="nonzero"/></clipPath><clipPath id="d8b3ac4da8"><path d="M 195.539062 138.683594 L 262.296875 138.683594 L 262.296875 205.445312 L 195.539062 205.445312 Z M 195.539062 138.683594 " clip-rule="nonzero"/></clipPath><clipPath id="6ed3f59640"><path d="M 228.917969 138.683594 C 210.484375 138.683594 195.539062 153.628906 195.539062 172.0625 C 195.539062 190.5 210.484375 205.445312 228.917969 205.445312 C 247.355469 205.445312 262.296875 190.5 262.296875 172.0625 C 262.296875 153.628906 247.355469 138.683594 228.917969 138.683594 Z M 228.917969 138.683594 " clip-rule="nonzero"/></clipPath><clipPath id="9a9b66a809"><path d="M 210.863281 153.097656 L 246.863281 153.097656 L 246.863281 189.097656 L 210.863281 189.097656 Z M 210.863281 153.097656 " clip-rule="nonzero"/></clipPath></defs><rect x="-37.5" width="450" fill="#ffffff" y="-37.499999" height="449.999989" fill-opacity="1"/><rect x="-37.5" width="450" fill="#ffffff" y="-37.499999" height="449.999989" fill-opacity="1"/><g clip-path="url(#c9cef3d7ca)"><g clip-path="url(#a6d7dfc442)"><path fill="#1e1e1c" d="M 28.824219 138.683594 L 95.585938 138.683594 L 95.585938 205.445312 L 28.824219 205.445312 Z M 28.824219 138.683594 " fill-opacity="1" fill-rule="nonzero"/></g></g><g clip-path="url(#8758fc7aba)"><g clip-path="url(#3603acc5e9)"><path fill="#000000" d="M 279.414062 138.683594 L 346.175781 138.683594 L 346.175781 205.445312 L 279.414062 205.445312 Z M 279.414062 138.683594 " fill-opacity="1" fill-rule="nonzero"/></g></g><g clip-path="url(#15a409f01d)"><path fill="#eeede8" d="M 328.832031 187.433594 C 328.832031 187.800781 328.53125 188.101562 328.164062 188.101562 L 300.089844 188.101562 C 298.246094 188.101562 296.746094 186.601562 296.746094 184.757812 L 296.746094 156.683594 C 296.746094 156.316406 297.046875 156.015625 297.414062 156.015625 C 297.785156 156.015625 298.082031 156.316406 298.082031 156.683594 L 298.082031 184.757812 C 298.082031 185.863281 298.984375 186.765625 300.089844 186.765625 L 328.164062 186.765625 C 328.53125 186.765625 328.832031 187.0625 328.832031 187.433594 Z M 325.488281 162.699219 L 320.140625 162.699219 C 319.773438 162.699219 319.472656 163 319.472656 163.367188 C 319.472656 163.738281 319.773438 164.039062 320.140625 164.039062 L 325.488281 164.039062 C 325.796875 164.039062 326.089844 164.109375 326.351562 164.234375 L 318.636719 171.46875 C 317.855469 172.253906 316.585938 172.253906 315.757812 171.433594 L 314.484375 170.363281 C 313.222656 169.101562 311.011719 169.109375 309.765625 170.355469 L 302.296875 177.59375 C 302.03125 177.851562 302.027344 178.277344 302.28125 178.539062 C 302.414062 178.675781 302.589844 178.742188 302.761719 178.742188 C 302.929688 178.742188 303.097656 178.679688 303.226562 178.554688 L 310.703125 171.308594 C 311.457031 170.554688 312.738281 170.511719 313.582031 171.347656 L 314.855469 172.417969 C 316.15625 173.71875 318.28125 173.71875 319.566406 172.433594 L 327.28125 165.195312 L 327.296875 165.179688 C 327.421875 165.441406 327.492188 165.734375 327.492188 166.042969 L 327.492188 171.390625 C 327.492188 171.761719 327.792969 172.058594 328.164062 172.058594 C 328.53125 172.058594 328.832031 171.761719 328.832031 171.390625 L 328.832031 166.042969 C 328.832031 164.199219 327.332031 162.699219 325.488281 162.699219 Z M 325.488281 162.699219 " fill-opacity="1" fill-rule="nonzero"/></g><g clip-path="url(#cf094d1777)"><path fill="#eeede8" d="M 69.28125 169.863281 C 64.667969 169.863281 60.917969 173.613281 60.917969 178.226562 C 60.917969 182.835938 64.667969 186.589844 69.28125 186.589844 C 73.890625 186.589844 77.640625 182.835938 77.640625 178.226562 C 77.640625 173.613281 73.890625 169.863281 69.28125 169.863281 Z M 69.28125 185.300781 C 65.378906 185.300781 62.203125 182.128906 62.203125 178.226562 C 62.203125 174.324219 65.378906 171.148438 69.28125 171.148438 C 73.179688 171.148438 76.355469 174.324219 76.355469 178.226562 C 76.355469 182.128906 73.179688 185.300781 69.28125 185.300781 Z M 69.921875 177.960938 L 72.308594 180.34375 L 71.398438 181.253906 L 68.636719 178.492188 L 68.636719 174.367188 L 69.925781 174.367188 L 69.925781 177.960938 Z M 74.425781 158.285156 L 69.921875 158.285156 L 69.921875 155.710938 L 68.636719 155.710938 L 68.636719 158.285156 L 55.769531 158.285156 L 55.769531 155.710938 L 54.484375 155.710938 L 54.484375 158.285156 L 49.980469 158.285156 C 48.207031 158.285156 46.761719 159.726562 46.761719 161.5 L 46.761719 186.589844 L 62.238281 186.589844 C 61.773438 186.195312 61.34375 185.765625 60.949219 185.300781 L 48.050781 185.300781 L 48.050781 167.289062 L 76.355469 167.289062 L 76.355469 169.898438 C 76.820312 170.289062 77.25 170.722656 77.640625 171.1875 L 77.640625 161.5 C 77.640625 159.726562 76.199219 158.285156 74.425781 158.285156 Z M 48.050781 166.003906 L 48.050781 161.5 C 48.050781 160.4375 48.917969 159.570312 49.980469 159.570312 L 74.425781 159.570312 C 75.488281 159.570312 76.355469 160.4375 76.355469 161.5 L 76.355469 166.003906 Z M 48.050781 166.003906 " fill-opacity="1" fill-rule="nonzero"/></g><g clip-path="url(#609ba9580b)"><g clip-path="url(#b8526f91e1)"><path fill="#1e1e1c" d="M 112.28125 137.773438 L 179.039062 137.773438 L 179.039062 204.53125 L 112.28125 204.53125 Z M 112.28125 137.773438 " fill-opacity="1" fill-rule="nonzero"/></g></g><g clip-path="url(#cb962c5d2e)"><path fill="#eeede8" d="M 162.613281 159.640625 L 162.613281 167.453125 C 162.167969 167.117188 161.695312 166.835938 161.203125 166.613281 L 161.203125 159.640625 C 161.203125 158.472656 160.25 157.523438 159.082031 157.523438 L 132.234375 157.523438 C 131.066406 157.523438 130.113281 158.472656 130.113281 159.640625 L 130.113281 182.957031 L 141.417969 182.957031 L 141.417969 184.371094 L 128.699219 184.371094 L 128.699219 159.640625 C 128.699219 157.695312 130.285156 156.109375 132.234375 156.109375 L 159.082031 156.109375 C 161.03125 156.109375 162.613281 157.695312 162.613281 159.640625 Z M 158.375 163.175781 L 147.070312 163.175781 L 147.070312 164.585938 L 158.375 164.585938 Z M 161.582031 169.859375 C 162.25 170.527344 162.613281 171.414062 162.613281 172.359375 C 162.613281 173.304688 162.246094 174.191406 161.582031 174.859375 L 149.242188 187.195312 L 144.246094 187.195312 L 144.246094 182.199219 L 156.585938 169.859375 C 157.960938 168.480469 160.203125 168.484375 161.582031 169.859375 Z M 161.203125 172.359375 C 161.203125 171.792969 160.980469 171.261719 160.582031 170.859375 C 159.757812 170.035156 158.410156 170.035156 157.585938 170.859375 L 145.660156 182.785156 L 145.660156 185.785156 L 148.65625 185.785156 L 160.582031 173.859375 C 160.980469 173.457031 161.203125 172.925781 161.203125 172.359375 Z M 139.296875 163.175781 L 138.59375 163.175781 L 138.59375 160.347656 L 137.179688 160.347656 L 137.179688 163.175781 L 136.472656 163.175781 C 134.523438 163.175781 132.941406 164.757812 132.941406 166.707031 C 132.941406 168.632812 134.316406 170.289062 136.207031 170.644531 L 139.304688 171.222656 C 140.527344 171.453125 141.417969 172.527344 141.417969 173.773438 C 141.417969 174.941406 140.464844 175.890625 139.296875 175.890625 L 136.472656 175.890625 C 135.300781 175.890625 134.351562 174.941406 134.351562 173.773438 L 134.351562 173.066406 L 132.9375 173.066406 L 132.9375 173.773438 C 132.9375 175.71875 134.523438 177.304688 136.472656 177.304688 L 137.175781 177.304688 L 137.175781 180.132812 L 138.589844 180.132812 L 138.589844 177.304688 L 139.296875 177.304688 C 141.246094 177.304688 142.828125 175.71875 142.828125 173.773438 C 142.828125 171.847656 141.457031 170.191406 139.5625 169.835938 L 136.464844 169.253906 C 135.242188 169.023438 134.351562 167.953125 134.351562 166.707031 C 134.351562 165.539062 135.300781 164.585938 136.472656 164.585938 L 139.296875 164.585938 C 140.464844 164.585938 141.417969 165.539062 141.417969 166.707031 L 141.417969 167.414062 L 142.828125 167.414062 L 142.828125 166.707031 C 142.828125 164.757812 141.246094 163.175781 139.296875 163.175781 Z M 147.070312 170.238281 L 152.210938 170.238281 L 153.625 168.828125 L 147.070312 168.828125 Z M 147.070312 170.238281 " fill-opacity="1" fill-rule="nonzero"/></g><g clip-path="url(#d8b3ac4da8)"><g clip-path="url(#6ed3f59640)"><path fill="#1e1e1c" d="M 195.539062 138.683594 L 262.296875 138.683594 L 262.296875 205.445312 L 195.539062 205.445312 Z M 195.539062 138.683594 " fill-opacity="1" fill-rule="nonzero"/></g></g><g clip-path="url(#9a9b66a809)"><path fill="#eeede8" d="M 239.847656 168.78125 C 239.058594 168.089844 238.308594 167.441406 237.722656 166.855469 C 237.574219 166.710938 237.363281 166.617188 237.164062 166.636719 C 236.957031 166.644531 236.757812 166.738281 236.621094 166.894531 C 235.117188 168.632812 234.546875 171.042969 234.085938 172.976562 C 233.863281 173.914062 233.445312 175.664062 233.101562 175.664062 C 231.96875 175.664062 231.925781 173.429688 231.925781 173.40625 C 231.925781 173.101562 231.738281 172.824219 231.457031 172.710938 C 231.171875 172.597656 230.851562 172.664062 230.632812 172.882812 C 229.039062 174.523438 227.414062 176.585938 227.414062 179.425781 C 227.414062 184.816406 231.800781 189.203125 237.191406 189.203125 C 242.582031 189.203125 246.96875 184.816406 246.96875 179.425781 C 246.96875 174.960938 243.023438 171.535156 239.851562 168.78125 Z M 235.0625 186.871094 C 234.492188 186.300781 234.179688 185.546875 234.179688 184.742188 C 234.179688 183.941406 234.492188 183.183594 235.0625 182.613281 L 237.191406 180.488281 L 239.316406 182.613281 C 239.886719 183.183594 240.199219 183.9375 240.199219 184.742188 C 240.199219 185.546875 239.886719 186.300781 239.316406 186.871094 C 238.90625 187.28125 238.410156 187.546875 237.882812 187.667969 C 237.65625 187.6875 237.421875 187.699219 237.191406 187.699219 C 236.957031 187.699219 236.726562 187.6875 236.496094 187.667969 C 235.96875 187.546875 235.472656 187.28125 235.0625 186.871094 Z M 241.304688 186.601562 C 241.566406 186.023438 241.703125 185.394531 241.703125 184.742188 C 241.703125 183.539062 241.230469 182.402344 240.378906 181.550781 L 237.722656 178.890625 C 237.425781 178.597656 236.949219 178.597656 236.65625 178.890625 L 233.996094 181.550781 C 233.144531 182.402344 232.675781 183.535156 232.675781 184.742188 C 232.675781 185.394531 232.8125 186.023438 233.074219 186.601562 C 230.589844 185.171875 228.914062 182.488281 228.914062 179.421875 C 228.914062 177.695312 229.679688 176.300781 230.679688 175.074219 C 231.015625 176.148438 231.734375 177.167969 233.097656 177.167969 C 234.632812 177.167969 235.054688 175.386719 235.546875 173.324219 C 235.910156 171.792969 236.351562 169.933594 237.277344 168.515625 C 237.761719 168.964844 238.300781 169.429688 238.859375 169.914062 C 241.800781 172.46875 245.460938 175.648438 245.460938 179.421875 C 245.460938 182.488281 243.785156 185.171875 241.304688 186.601562 Z M 246.96875 159.867188 L 246.96875 170.398438 C 246.96875 170.8125 246.632812 171.148438 246.214844 171.148438 C 245.800781 171.148438 245.464844 170.8125 245.464844 170.398438 L 245.464844 159.867188 C 245.464844 156.964844 243.101562 154.601562 240.199219 154.601562 L 217.632812 154.601562 C 214.730469 154.601562 212.367188 156.964844 212.367188 159.867188 L 212.367188 182.433594 C 212.367188 185.335938 214.730469 187.699219 217.632812 187.699219 L 228.164062 187.699219 C 228.578125 187.699219 228.914062 188.035156 228.914062 188.449219 C 228.914062 188.863281 228.578125 189.203125 228.164062 189.203125 L 217.632812 189.203125 C 213.898438 189.203125 210.863281 186.164062 210.863281 182.433594 L 210.863281 159.867188 C 210.863281 156.132812 213.898438 153.097656 217.632812 153.097656 L 240.199219 153.097656 C 243.929688 153.097656 246.96875 156.132812 246.96875 159.867188 Z M 216.878906 157.609375 C 217.710938 157.609375 218.386719 158.285156 218.386719 159.113281 C 218.386719 159.945312 217.710938 160.617188 216.878906 160.617188 C 216.050781 160.617188 215.375 159.945312 215.375 159.113281 C 215.375 158.285156 216.050781 157.609375 216.878906 157.609375 Z M 222.898438 157.609375 C 223.730469 157.609375 224.402344 158.285156 224.402344 159.113281 C 224.402344 159.945312 223.730469 160.617188 222.898438 160.617188 C 222.066406 160.617188 221.394531 159.945312 221.394531 159.113281 C 221.394531 158.285156 222.066406 157.609375 222.898438 157.609375 Z M 222.898438 157.609375 " fill-opacity="1" fill-rule="nonzero"/></g><g fill="#000000" fill-opacity="1"><g transform="translate(33.01776, 223.150487)"><g><path d="M 3.109375 0.09375 C 2.578125 0.09375 2.113281 -0.0234375 1.71875 -0.265625 C 1.332031 -0.515625 1.03125 -0.882812 0.8125 -1.375 C 0.601562 -1.875 0.5 -2.484375 0.5 -3.203125 C 0.5 -3.929688 0.625 -4.539062 0.875 -5.03125 C 1.132812 -5.53125 1.488281 -5.898438 1.9375 -6.140625 C 2.394531 -6.378906 2.921875 -6.5 3.515625 -6.5 C 4.128906 -6.5 4.648438 -6.382812 5.078125 -6.15625 C 5.515625 -5.9375 5.820312 -5.597656 6 -5.140625 L 5.078125 -4.578125 L 4.96875 -4.59375 C 4.832031 -4.875 4.644531 -5.078125 4.40625 -5.203125 C 4.164062 -5.335938 3.867188 -5.40625 3.515625 -5.40625 C 2.960938 -5.40625 2.539062 -5.226562 2.25 -4.875 C 1.957031 -4.53125 1.8125 -3.972656 1.8125 -3.203125 C 1.8125 -2.429688 1.945312 -1.867188 2.21875 -1.515625 C 2.488281 -1.160156 2.894531 -0.984375 3.4375 -0.984375 C 3.894531 -0.984375 4.234375 -1.085938 4.453125 -1.296875 C 4.671875 -1.503906 4.78125 -1.816406 4.78125 -2.234375 L 4.78125 -2.515625 L 3.265625 -2.515625 L 3.265625 -3.546875 L 6.046875 -3.546875 L 6.046875 0 L 4.828125 0 L 4.828125 -0.859375 L 4.75 -0.875 C 4.613281 -0.5625 4.410156 -0.320312 4.140625 -0.15625 C 3.867188 0.0078125 3.523438 0.09375 3.109375 0.09375 Z M 3.109375 0.09375 "/></g></g><g transform="translate(39.708194, 223.150487)"><g><path d="M 4.78125 -2.140625 L 1.671875 -2.140625 C 1.703125 -1.722656 1.820312 -1.414062 2.03125 -1.21875 C 2.238281 -1.03125 2.519531 -0.9375 2.875 -0.9375 C 3.144531 -0.9375 3.363281 -0.988281 3.53125 -1.09375 C 3.707031 -1.195312 3.851562 -1.351562 3.96875 -1.5625 L 4.046875 -1.5625 L 4.859375 -1.046875 C 4.703125 -0.710938 4.460938 -0.4375 4.140625 -0.21875 C 3.828125 -0.0078125 3.40625 0.09375 2.875 0.09375 C 2.375 0.09375 1.941406 0 1.578125 -0.1875 C 1.210938 -0.382812 0.929688 -0.671875 0.734375 -1.046875 C 0.535156 -1.421875 0.4375 -1.878906 0.4375 -2.421875 C 0.4375 -2.960938 0.539062 -3.421875 0.75 -3.796875 C 0.957031 -4.179688 1.238281 -4.46875 1.59375 -4.65625 C 1.945312 -4.84375 2.34375 -4.9375 2.78125 -4.9375 C 3.46875 -4.9375 3.992188 -4.753906 4.359375 -4.390625 C 4.722656 -4.023438 4.90625 -3.492188 4.90625 -2.796875 C 4.90625 -2.535156 4.894531 -2.335938 4.875 -2.203125 Z M 3.734375 -2.9375 C 3.722656 -3.300781 3.632812 -3.566406 3.46875 -3.734375 C 3.3125 -3.898438 3.082031 -3.984375 2.78125 -3.984375 C 2.164062 -3.984375 1.804688 -3.632812 1.703125 -2.9375 Z M 3.734375 -2.9375 "/></g></g><g transform="translate(44.968411, 223.150487)"><g><path d="M 2.265625 0.09375 C 1.929688 0.09375 1.625 0.0546875 1.34375 -0.015625 C 1.070312 -0.0976562 0.835938 -0.207031 0.640625 -0.34375 C 0.453125 -0.476562 0.3125 -0.632812 0.21875 -0.8125 L 0.890625 -1.546875 L 0.984375 -1.546875 C 1.148438 -1.328125 1.34375 -1.160156 1.5625 -1.046875 C 1.78125 -0.941406 2.015625 -0.890625 2.265625 -0.890625 C 2.503906 -0.890625 2.679688 -0.929688 2.796875 -1.015625 C 2.921875 -1.097656 2.984375 -1.21875 2.984375 -1.375 C 2.984375 -1.5 2.941406 -1.601562 2.859375 -1.6875 C 2.773438 -1.769531 2.632812 -1.835938 2.4375 -1.890625 L 1.796875 -2.046875 C 1.316406 -2.160156 0.96875 -2.332031 0.75 -2.5625 C 0.53125 -2.800781 0.421875 -3.101562 0.421875 -3.46875 C 0.421875 -3.757812 0.492188 -4.015625 0.640625 -4.234375 C 0.796875 -4.460938 1.015625 -4.632812 1.296875 -4.75 C 1.578125 -4.875 1.898438 -4.9375 2.265625 -4.9375 C 2.703125 -4.9375 3.0625 -4.867188 3.34375 -4.734375 C 3.632812 -4.609375 3.863281 -4.441406 4.03125 -4.234375 L 3.375 -3.53125 L 3.296875 -3.53125 C 3.160156 -3.6875 3.003906 -3.796875 2.828125 -3.859375 C 2.660156 -3.929688 2.472656 -3.96875 2.265625 -3.96875 C 1.785156 -3.96875 1.546875 -3.820312 1.546875 -3.53125 C 1.546875 -3.40625 1.59375 -3.300781 1.6875 -3.21875 C 1.78125 -3.132812 1.9375 -3.070312 2.15625 -3.03125 L 2.75 -2.890625 C 3.238281 -2.785156 3.597656 -2.617188 3.828125 -2.390625 C 4.054688 -2.160156 4.171875 -1.847656 4.171875 -1.453125 C 4.171875 -1.140625 4.09375 -0.867188 3.9375 -0.640625 C 3.789062 -0.410156 3.570312 -0.226562 3.28125 -0.09375 C 3 0.03125 2.660156 0.09375 2.265625 0.09375 Z M 2.265625 0.09375 "/></g></g><g transform="translate(49.430163, 223.150487)"><g><path d="M 3.34375 -1.15625 L 3.65625 -0.25 C 3.519531 -0.144531 3.351562 -0.0625 3.15625 0 C 2.957031 0.0625 2.734375 0.09375 2.484375 0.09375 C 1.960938 0.09375 1.5625 -0.046875 1.28125 -0.328125 C 1.007812 -0.617188 0.875 -1.035156 0.875 -1.578125 L 0.875 -3.875 L 0.140625 -3.875 L 0.140625 -4.84375 L 0.875 -4.84375 L 0.875 -5.78125 L 2.09375 -5.984375 L 2.09375 -4.84375 L 3.46875 -4.84375 L 3.46875 -3.875 L 2.09375 -3.875 L 2.09375 -1.671875 C 2.09375 -1.429688 2.140625 -1.253906 2.234375 -1.140625 C 2.335938 -1.035156 2.488281 -0.984375 2.6875 -0.984375 C 2.894531 -0.984375 3.082031 -1.039062 3.25 -1.15625 Z M 3.34375 -1.15625 "/></g></g><g transform="translate(53.189967, 223.150487)"><g><path d="M 1.296875 -5.421875 C 1.078125 -5.421875 0.898438 -5.484375 0.765625 -5.609375 C 0.628906 -5.742188 0.5625 -5.921875 0.5625 -6.140625 C 0.5625 -6.335938 0.628906 -6.503906 0.765625 -6.640625 C 0.898438 -6.773438 1.078125 -6.84375 1.296875 -6.84375 C 1.441406 -6.84375 1.570312 -6.8125 1.6875 -6.75 C 1.800781 -6.6875 1.890625 -6.601562 1.953125 -6.5 C 2.015625 -6.394531 2.046875 -6.273438 2.046875 -6.140625 C 2.046875 -5.992188 2.015625 -5.867188 1.953125 -5.765625 C 1.890625 -5.660156 1.800781 -5.578125 1.6875 -5.515625 C 1.570312 -5.453125 1.441406 -5.421875 1.296875 -5.421875 Z M 0.703125 0 L 0.703125 -4.84375 L 1.90625 -4.84375 L 1.90625 0 Z M 0.703125 0 "/></g></g><g transform="translate(55.795946, 223.150487)"><g><path d="M 2.8125 0.09375 C 2.332031 0.09375 1.914062 0 1.5625 -0.1875 C 1.207031 -0.382812 0.929688 -0.671875 0.734375 -1.046875 C 0.535156 -1.429688 0.4375 -1.890625 0.4375 -2.421875 C 0.4375 -2.953125 0.535156 -3.40625 0.734375 -3.78125 C 0.929688 -4.15625 1.207031 -4.441406 1.5625 -4.640625 C 1.914062 -4.835938 2.332031 -4.9375 2.8125 -4.9375 C 3.28125 -4.9375 3.691406 -4.835938 4.046875 -4.640625 C 4.410156 -4.441406 4.691406 -4.15625 4.890625 -3.78125 C 5.085938 -3.40625 5.1875 -2.953125 5.1875 -2.421875 C 5.1875 -1.890625 5.085938 -1.429688 4.890625 -1.046875 C 4.691406 -0.671875 4.410156 -0.382812 4.046875 -0.1875 C 3.691406 0 3.28125 0.09375 2.8125 0.09375 Z M 2.8125 -0.9375 C 3.5625 -0.9375 3.9375 -1.429688 3.9375 -2.421875 C 3.9375 -2.929688 3.835938 -3.304688 3.640625 -3.546875 C 3.453125 -3.785156 3.175781 -3.90625 2.8125 -3.90625 C 2.0625 -3.90625 1.6875 -3.410156 1.6875 -2.421875 C 1.6875 -1.429688 2.0625 -0.9375 2.8125 -0.9375 Z M 3.1875 -5.328125 L 2.359375 -5.328125 L 2.359375 -5.40625 L 3 -6.78125 L 4.359375 -6.78125 L 4.359375 -6.6875 Z M 3.1875 -5.328125 "/></g></g><g transform="translate(61.420298, 223.150487)"><g><path d="M 0.703125 0 L 0.703125 -4.84375 L 1.859375 -4.84375 L 1.859375 -4.125 L 1.953125 -4.109375 C 2.253906 -4.660156 2.742188 -4.9375 3.421875 -4.9375 C 3.984375 -4.9375 4.394531 -4.78125 4.65625 -4.46875 C 4.914062 -4.164062 5.046875 -3.722656 5.046875 -3.140625 L 5.046875 0 L 3.828125 0 L 3.828125 -3 C 3.828125 -3.320312 3.757812 -3.550781 3.625 -3.6875 C 3.5 -3.832031 3.296875 -3.90625 3.015625 -3.90625 C 2.671875 -3.90625 2.398438 -3.789062 2.203125 -3.5625 C 2.003906 -3.34375 1.90625 -2.988281 1.90625 -2.5 L 1.90625 0 Z M 0.703125 0 "/></g></g></g><g fill="#000000" fill-opacity="1"><g transform="translate(67.088522, 223.150487)"><g/></g></g><g fill="#000000" fill-opacity="1"><g transform="translate(33.01776, 235.130386)"><g><path d="M 2.390625 0.09375 C 2.003906 0.09375 1.664062 0 1.375 -0.1875 C 1.082031 -0.375 0.851562 -0.65625 0.6875 -1.03125 C 0.519531 -1.40625 0.4375 -1.867188 0.4375 -2.421875 C 0.4375 -2.972656 0.519531 -3.4375 0.6875 -3.8125 C 0.863281 -4.1875 1.101562 -4.46875 1.40625 -4.65625 C 1.707031 -4.84375 2.054688 -4.9375 2.453125 -4.9375 C 2.753906 -4.9375 3.015625 -4.882812 3.234375 -4.78125 C 3.453125 -4.675781 3.640625 -4.515625 3.796875 -4.296875 L 3.890625 -4.3125 L 3.890625 -6.78125 L 5.109375 -6.78125 L 5.109375 0 L 3.890625 0 L 3.890625 -0.625 L 3.796875 -0.640625 C 3.660156 -0.410156 3.472656 -0.226562 3.234375 -0.09375 C 3.003906 0.03125 2.722656 0.09375 2.390625 0.09375 Z M 2.78125 -0.9375 C 3.125 -0.9375 3.394531 -1.054688 3.59375 -1.296875 C 3.789062 -1.546875 3.890625 -1.921875 3.890625 -2.421875 C 3.890625 -2.910156 3.789062 -3.28125 3.59375 -3.53125 C 3.394531 -3.78125 3.125 -3.90625 2.78125 -3.90625 C 2.425781 -3.90625 2.15625 -3.785156 1.96875 -3.546875 C 1.78125 -3.304688 1.6875 -2.929688 1.6875 -2.421875 C 1.6875 -1.910156 1.78125 -1.535156 1.96875 -1.296875 C 2.15625 -1.054688 2.425781 -0.9375 2.78125 -0.9375 Z M 2.78125 -0.9375 "/></g></g><g transform="translate(38.817599, 235.130386)"><g><path d="M 4.78125 -2.140625 L 1.671875 -2.140625 C 1.703125 -1.722656 1.820312 -1.414062 2.03125 -1.21875 C 2.238281 -1.03125 2.519531 -0.9375 2.875 -0.9375 C 3.144531 -0.9375 3.363281 -0.988281 3.53125 -1.09375 C 3.707031 -1.195312 3.851562 -1.351562 3.96875 -1.5625 L 4.046875 -1.5625 L 4.859375 -1.046875 C 4.703125 -0.710938 4.460938 -0.4375 4.140625 -0.21875 C 3.828125 -0.0078125 3.40625 0.09375 2.875 0.09375 C 2.375 0.09375 1.941406 0 1.578125 -0.1875 C 1.210938 -0.382812 0.929688 -0.671875 0.734375 -1.046875 C 0.535156 -1.421875 0.4375 -1.878906 0.4375 -2.421875 C 0.4375 -2.960938 0.539062 -3.421875 0.75 -3.796875 C 0.957031 -4.179688 1.238281 -4.46875 1.59375 -4.65625 C 1.945312 -4.84375 2.34375 -4.9375 2.78125 -4.9375 C 3.46875 -4.9375 3.992188 -4.753906 4.359375 -4.390625 C 4.722656 -4.023438 4.90625 -3.492188 4.90625 -2.796875 C 4.90625 -2.535156 4.894531 -2.335938 4.875 -2.203125 Z M 3.734375 -2.9375 C 3.722656 -3.300781 3.632812 -3.566406 3.46875 -3.734375 C 3.3125 -3.898438 3.082031 -3.984375 2.78125 -3.984375 C 2.164062 -3.984375 1.804688 -3.632812 1.703125 -2.9375 Z M 3.734375 -2.9375 "/></g></g><g transform="translate(44.077815, 235.130386)"><g/></g><g transform="translate(46.196818, 235.130386)"><g><path d="M 3.5 0.09375 C 2.914062 0.09375 2.394531 -0.0234375 1.9375 -0.265625 C 1.488281 -0.515625 1.132812 -0.882812 0.875 -1.375 C 0.625 -1.875 0.5 -2.484375 0.5 -3.203125 C 0.5 -3.929688 0.625 -4.539062 0.875 -5.03125 C 1.132812 -5.519531 1.488281 -5.882812 1.9375 -6.125 C 2.394531 -6.375 2.914062 -6.5 3.5 -6.5 C 4.125 -6.5 4.648438 -6.378906 5.078125 -6.140625 C 5.503906 -5.898438 5.8125 -5.535156 6 -5.046875 L 5.078125 -4.46875 L 4.96875 -4.484375 C 4.832031 -4.816406 4.644531 -5.050781 4.40625 -5.1875 C 4.164062 -5.332031 3.863281 -5.40625 3.5 -5.40625 C 2.96875 -5.40625 2.550781 -5.226562 2.25 -4.875 C 1.957031 -4.53125 1.8125 -3.972656 1.8125 -3.203125 C 1.8125 -2.441406 1.957031 -1.882812 2.25 -1.53125 C 2.550781 -1.175781 2.96875 -1 3.5 -1 C 4.332031 -1 4.84375 -1.40625 5.03125 -2.21875 L 5.140625 -2.21875 L 6.078125 -1.734375 C 5.898438 -1.128906 5.597656 -0.671875 5.171875 -0.359375 C 4.753906 -0.0546875 4.195312 0.09375 3.5 0.09375 Z M 3.5 0.09375 "/></g></g><g transform="translate(52.48802, 235.130386)"><g><path d="M 1.890625 0.09375 C 1.578125 0.09375 1.304688 0.0351562 1.078125 -0.078125 C 0.847656 -0.191406 0.671875 -0.359375 0.546875 -0.578125 C 0.429688 -0.796875 0.375 -1.0625 0.375 -1.375 C 0.375 -1.664062 0.429688 -1.90625 0.546875 -2.09375 C 0.671875 -2.289062 0.863281 -2.453125 1.125 -2.578125 C 1.382812 -2.703125 1.71875 -2.796875 2.125 -2.859375 C 2.414062 -2.910156 2.632812 -2.960938 2.78125 -3.015625 C 2.9375 -3.066406 3.039062 -3.128906 3.09375 -3.203125 C 3.144531 -3.273438 3.171875 -3.363281 3.171875 -3.46875 C 3.171875 -3.625 3.113281 -3.742188 3 -3.828125 C 2.894531 -3.910156 2.71875 -3.953125 2.46875 -3.953125 C 2.207031 -3.953125 1.953125 -3.890625 1.703125 -3.765625 C 1.460938 -3.648438 1.253906 -3.492188 1.078125 -3.296875 L 0.984375 -3.296875 L 0.484375 -4.0625 C 0.722656 -4.332031 1.019531 -4.546875 1.375 -4.703125 C 1.726562 -4.859375 2.113281 -4.9375 2.53125 -4.9375 C 3.175781 -4.9375 3.640625 -4.796875 3.921875 -4.515625 C 4.210938 -4.242188 4.359375 -3.859375 4.359375 -3.359375 L 4.359375 -1.265625 C 4.359375 -1.046875 4.453125 -0.9375 4.640625 -0.9375 C 4.710938 -0.9375 4.785156 -0.953125 4.859375 -0.984375 L 4.921875 -0.953125 L 5 -0.109375 C 4.9375 -0.0664062 4.84375 -0.03125 4.71875 0 C 4.601562 0.0195312 4.472656 0.03125 4.328125 0.03125 C 4.035156 0.03125 3.804688 -0.0195312 3.640625 -0.125 C 3.484375 -0.238281 3.367188 -0.414062 3.296875 -0.65625 L 3.21875 -0.65625 C 2.976562 -0.15625 2.535156 0.09375 1.890625 0.09375 Z M 2.265625 -0.8125 C 2.546875 -0.8125 2.769531 -0.90625 2.9375 -1.09375 C 3.113281 -1.28125 3.203125 -1.546875 3.203125 -1.890625 L 3.203125 -2.375 L 3.109375 -2.390625 C 3.035156 -2.335938 2.941406 -2.289062 2.828125 -2.25 C 2.710938 -2.207031 2.539062 -2.164062 2.3125 -2.125 C 2.050781 -2.082031 1.863281 -2.007812 1.75 -1.90625 C 1.632812 -1.800781 1.578125 -1.648438 1.578125 -1.453125 C 1.578125 -1.242188 1.632812 -1.082031 1.75 -0.96875 C 1.875 -0.863281 2.046875 -0.8125 2.265625 -0.8125 Z M 2.265625 -0.8125 "/></g></g><g transform="translate(57.590299, 235.130386)"><g><path d="M 0.703125 0 L 0.703125 -4.84375 L 1.859375 -4.84375 L 1.859375 -4.1875 L 1.953125 -4.171875 C 2.109375 -4.429688 2.289062 -4.625 2.5 -4.75 C 2.71875 -4.875 2.992188 -4.9375 3.328125 -4.9375 C 3.691406 -4.9375 3.984375 -4.863281 4.203125 -4.71875 C 4.429688 -4.570312 4.59375 -4.359375 4.6875 -4.078125 L 4.78125 -4.078125 C 4.9375 -4.367188 5.128906 -4.582031 5.359375 -4.71875 C 5.597656 -4.863281 5.894531 -4.9375 6.25 -4.9375 C 7.25 -4.9375 7.75 -4.375 7.75 -3.25 L 7.75 0 L 6.53125 0 L 6.53125 -3.09375 C 6.53125 -3.382812 6.472656 -3.59375 6.359375 -3.71875 C 6.253906 -3.84375 6.078125 -3.90625 5.828125 -3.90625 C 5.160156 -3.90625 4.828125 -3.457031 4.828125 -2.5625 L 4.828125 0 L 3.609375 0 L 3.609375 -3.09375 C 3.609375 -3.382812 3.550781 -3.59375 3.4375 -3.71875 C 3.332031 -3.84375 3.15625 -3.90625 2.90625 -3.90625 C 2.59375 -3.90625 2.347656 -3.800781 2.171875 -3.59375 C 1.992188 -3.382812 1.90625 -3.050781 1.90625 -2.59375 L 1.90625 0 Z M 0.703125 0 "/></g></g><g transform="translate(65.961019, 235.130386)"><g><path d="M 0.703125 1.96875 L 0.703125 -4.84375 L 1.90625 -4.84375 L 1.90625 -4.203125 L 2 -4.1875 C 2.144531 -4.4375 2.335938 -4.625 2.578125 -4.75 C 2.816406 -4.875 3.097656 -4.9375 3.421875 -4.9375 C 3.804688 -4.9375 4.144531 -4.84375 4.4375 -4.65625 C 4.726562 -4.46875 4.953125 -4.1875 5.109375 -3.8125 C 5.273438 -3.4375 5.359375 -2.972656 5.359375 -2.421875 C 5.359375 -1.867188 5.273438 -1.40625 5.109375 -1.03125 C 4.941406 -0.65625 4.703125 -0.375 4.390625 -0.1875 C 4.085938 0 3.738281 0.09375 3.34375 0.09375 C 3.039062 0.09375 2.78125 0.046875 2.5625 -0.046875 C 2.34375 -0.148438 2.15625 -0.3125 2 -0.53125 L 1.90625 -0.515625 L 1.90625 1.96875 Z M 3 -0.9375 C 3.363281 -0.9375 3.640625 -1.054688 3.828125 -1.296875 C 4.015625 -1.535156 4.109375 -1.910156 4.109375 -2.421875 C 4.109375 -2.929688 4.015625 -3.304688 3.828125 -3.546875 C 3.640625 -3.785156 3.363281 -3.90625 3 -3.90625 C 2.664062 -3.90625 2.398438 -3.78125 2.203125 -3.53125 C 2.003906 -3.28125 1.90625 -2.910156 1.90625 -2.421875 C 1.90625 -1.921875 2.003906 -1.546875 2.203125 -1.296875 C 2.398438 -1.054688 2.664062 -0.9375 3 -0.9375 Z M 3 -0.9375 "/></g></g><g transform="translate(71.75647, 235.130386)"><g><path d="M 1.890625 0.09375 C 1.578125 0.09375 1.304688 0.0351562 1.078125 -0.078125 C 0.847656 -0.191406 0.671875 -0.359375 0.546875 -0.578125 C 0.429688 -0.796875 0.375 -1.0625 0.375 -1.375 C 0.375 -1.664062 0.429688 -1.90625 0.546875 -2.09375 C 0.671875 -2.289062 0.863281 -2.453125 1.125 -2.578125 C 1.382812 -2.703125 1.71875 -2.796875 2.125 -2.859375 C 2.414062 -2.910156 2.632812 -2.960938 2.78125 -3.015625 C 2.9375 -3.066406 3.039062 -3.128906 3.09375 -3.203125 C 3.144531 -3.273438 3.171875 -3.363281 3.171875 -3.46875 C 3.171875 -3.625 3.113281 -3.742188 3 -3.828125 C 2.894531 -3.910156 2.71875 -3.953125 2.46875 -3.953125 C 2.207031 -3.953125 1.953125 -3.890625 1.703125 -3.765625 C 1.460938 -3.648438 1.253906 -3.492188 1.078125 -3.296875 L 0.984375 -3.296875 L 0.484375 -4.0625 C 0.722656 -4.332031 1.019531 -4.546875 1.375 -4.703125 C 1.726562 -4.859375 2.113281 -4.9375 2.53125 -4.9375 C 3.175781 -4.9375 3.640625 -4.796875 3.921875 -4.515625 C 4.210938 -4.242188 4.359375 -3.859375 4.359375 -3.359375 L 4.359375 -1.265625 C 4.359375 -1.046875 4.453125 -0.9375 4.640625 -0.9375 C 4.710938 -0.9375 4.785156 -0.953125 4.859375 -0.984375 L 4.921875 -0.953125 L 5 -0.109375 C 4.9375 -0.0664062 4.84375 -0.03125 4.71875 0 C 4.601562 0.0195312 4.472656 0.03125 4.328125 0.03125 C 4.035156 0.03125 3.804688 -0.0195312 3.640625 -0.125 C 3.484375 -0.238281 3.367188 -0.414062 3.296875 -0.65625 L 3.21875 -0.65625 C 2.976562 -0.15625 2.535156 0.09375 1.890625 0.09375 Z M 2.265625 -0.8125 C 2.546875 -0.8125 2.769531 -0.90625 2.9375 -1.09375 C 3.113281 -1.28125 3.203125 -1.546875 3.203125 -1.890625 L 3.203125 -2.375 L 3.109375 -2.390625 C 3.035156 -2.335938 2.941406 -2.289062 2.828125 -2.25 C 2.710938 -2.207031 2.539062 -2.164062 2.3125 -2.125 C 2.050781 -2.082031 1.863281 -2.007812 1.75 -1.90625 C 1.632812 -1.800781 1.578125 -1.648438 1.578125 -1.453125 C 1.578125 -1.242188 1.632812 -1.082031 1.75 -0.96875 C 1.875 -0.863281 2.046875 -0.8125 2.265625 -0.8125 Z M 2.265625 -0.8125 "/></g></g><g transform="translate(76.858749, 235.130386)"><g><path d="M 0.703125 0 L 0.703125 -4.84375 L 1.859375 -4.84375 L 1.859375 -4.125 L 1.953125 -4.109375 C 2.253906 -4.660156 2.742188 -4.9375 3.421875 -4.9375 C 3.984375 -4.9375 4.394531 -4.78125 4.65625 -4.46875 C 4.914062 -4.164062 5.046875 -3.722656 5.046875 -3.140625 L 5.046875 0 L 3.828125 0 L 3.828125 -3 C 3.828125 -3.320312 3.757812 -3.550781 3.625 -3.6875 C 3.5 -3.832031 3.296875 -3.90625 3.015625 -3.90625 C 2.671875 -3.90625 2.398438 -3.789062 2.203125 -3.5625 C 2.003906 -3.34375 1.90625 -2.988281 1.90625 -2.5 L 1.90625 0 Z M 1.515625 -5.578125 C 1.515625 -5.984375 1.585938 -6.285156 1.734375 -6.484375 C 1.878906 -6.679688 2.078125 -6.78125 2.328125 -6.78125 C 2.441406 -6.78125 2.546875 -6.757812 2.640625 -6.71875 C 2.742188 -6.675781 2.847656 -6.613281 2.953125 -6.53125 L 3.109375 -6.390625 C 3.179688 -6.328125 3.226562 -6.285156 3.25 -6.265625 C 3.28125 -6.253906 3.316406 -6.25 3.359375 -6.25 C 3.398438 -6.25 3.429688 -6.273438 3.453125 -6.328125 C 3.484375 -6.378906 3.5 -6.484375 3.5 -6.640625 L 3.5 -6.78125 L 4.21875 -6.78125 L 4.21875 -6.65625 C 4.21875 -6.238281 4.144531 -5.929688 4 -5.734375 C 3.863281 -5.546875 3.671875 -5.453125 3.421875 -5.453125 C 3.304688 -5.453125 3.195312 -5.46875 3.09375 -5.5 C 2.988281 -5.539062 2.890625 -5.609375 2.796875 -5.703125 L 2.640625 -5.84375 C 2.578125 -5.894531 2.523438 -5.929688 2.484375 -5.953125 C 2.453125 -5.972656 2.421875 -5.984375 2.390625 -5.984375 C 2.347656 -5.984375 2.3125 -5.953125 2.28125 -5.890625 C 2.257812 -5.835938 2.25 -5.738281 2.25 -5.59375 L 2.25 -5.453125 L 1.515625 -5.453125 Z M 1.515625 -5.578125 "/></g></g><g transform="translate(82.526973, 235.130386)"><g><path d="M 1.890625 0.09375 C 1.578125 0.09375 1.304688 0.0351562 1.078125 -0.078125 C 0.847656 -0.191406 0.671875 -0.359375 0.546875 -0.578125 C 0.429688 -0.796875 0.375 -1.0625 0.375 -1.375 C 0.375 -1.664062 0.429688 -1.90625 0.546875 -2.09375 C 0.671875 -2.289062 0.863281 -2.453125 1.125 -2.578125 C 1.382812 -2.703125 1.71875 -2.796875 2.125 -2.859375 C 2.414062 -2.910156 2.632812 -2.960938 2.78125 -3.015625 C 2.9375 -3.066406 3.039062 -3.128906 3.09375 -3.203125 C 3.144531 -3.273438 3.171875 -3.363281 3.171875 -3.46875 C 3.171875 -3.625 3.113281 -3.742188 3 -3.828125 C 2.894531 -3.910156 2.71875 -3.953125 2.46875 -3.953125 C 2.207031 -3.953125 1.953125 -3.890625 1.703125 -3.765625 C 1.460938 -3.648438 1.253906 -3.492188 1.078125 -3.296875 L 0.984375 -3.296875 L 0.484375 -4.0625 C 0.722656 -4.332031 1.019531 -4.546875 1.375 -4.703125 C 1.726562 -4.859375 2.113281 -4.9375 2.53125 -4.9375 C 3.175781 -4.9375 3.640625 -4.796875 3.921875 -4.515625 C 4.210938 -4.242188 4.359375 -3.859375 4.359375 -3.359375 L 4.359375 -1.265625 C 4.359375 -1.046875 4.453125 -0.9375 4.640625 -0.9375 C 4.710938 -0.9375 4.785156 -0.953125 4.859375 -0.984375 L 4.921875 -0.953125 L 5 -0.109375 C 4.9375 -0.0664062 4.84375 -0.03125 4.71875 0 C 4.601562 0.0195312 4.472656 0.03125 4.328125 0.03125 C 4.035156 0.03125 3.804688 -0.0195312 3.640625 -0.125 C 3.484375 -0.238281 3.367188 -0.414062 3.296875 -0.65625 L 3.21875 -0.65625 C 2.976562 -0.15625 2.535156 0.09375 1.890625 0.09375 Z M 2.265625 -0.8125 C 2.546875 -0.8125 2.769531 -0.90625 2.9375 -1.09375 C 3.113281 -1.28125 3.203125 -1.546875 3.203125 -1.890625 L 3.203125 -2.375 L 3.109375 -2.390625 C 3.035156 -2.335938 2.941406 -2.289062 2.828125 -2.25 C 2.710938 -2.207031 2.539062 -2.164062 2.3125 -2.125 C 2.050781 -2.082031 1.863281 -2.007812 1.75 -1.90625 C 1.632812 -1.800781 1.578125 -1.648438 1.578125 -1.453125 C 1.578125 -1.242188 1.632812 -1.082031 1.75 -0.96875 C 1.875 -0.863281 2.046875 -0.8125 2.265625 -0.8125 Z M 2.265625 -0.8125 "/></g></g><g transform="translate(87.629251, 235.130386)"><g><path d="M 2.265625 0.09375 C 1.929688 0.09375 1.625 0.0546875 1.34375 -0.015625 C 1.070312 -0.0976562 0.835938 -0.207031 0.640625 -0.34375 C 0.453125 -0.476562 0.3125 -0.632812 0.21875 -0.8125 L 0.890625 -1.546875 L 0.984375 -1.546875 C 1.148438 -1.328125 1.34375 -1.160156 1.5625 -1.046875 C 1.78125 -0.941406 2.015625 -0.890625 2.265625 -0.890625 C 2.503906 -0.890625 2.679688 -0.929688 2.796875 -1.015625 C 2.921875 -1.097656 2.984375 -1.21875 2.984375 -1.375 C 2.984375 -1.5 2.941406 -1.601562 2.859375 -1.6875 C 2.773438 -1.769531 2.632812 -1.835938 2.4375 -1.890625 L 1.796875 -2.046875 C 1.316406 -2.160156 0.96875 -2.332031 0.75 -2.5625 C 0.53125 -2.800781 0.421875 -3.101562 0.421875 -3.46875 C 0.421875 -3.757812 0.492188 -4.015625 0.640625 -4.234375 C 0.796875 -4.460938 1.015625 -4.632812 1.296875 -4.75 C 1.578125 -4.875 1.898438 -4.9375 2.265625 -4.9375 C 2.703125 -4.9375 3.0625 -4.867188 3.34375 -4.734375 C 3.632812 -4.609375 3.863281 -4.441406 4.03125 -4.234375 L 3.375 -3.53125 L 3.296875 -3.53125 C 3.160156 -3.6875 3.003906 -3.796875 2.828125 -3.859375 C 2.660156 -3.929688 2.472656 -3.96875 2.265625 -3.96875 C 1.785156 -3.96875 1.546875 -3.820312 1.546875 -3.53125 C 1.546875 -3.40625 1.59375 -3.300781 1.6875 -3.21875 C 1.78125 -3.132812 1.9375 -3.070312 2.15625 -3.03125 L 2.75 -2.890625 C 3.238281 -2.785156 3.597656 -2.617188 3.828125 -2.390625 C 4.054688 -2.160156 4.171875 -1.847656 4.171875 -1.453125 C 4.171875 -1.140625 4.09375 -0.867188 3.9375 -0.640625 C 3.789062 -0.410156 3.570312 -0.226562 3.28125 -0.09375 C 3 0.03125 2.660156 0.09375 2.265625 0.09375 Z M 2.265625 0.09375 "/></g></g></g><g fill="#000000" fill-opacity="1"><g transform="translate(294.753085, 223.150487)"><g><path d="M 6.15625 0 L 4.828125 0 L 4.34375 -1.484375 L 1.875 -1.484375 L 1.40625 0 L 0.09375 0 L 2.3125 -6.40625 L 3.9375 -6.40625 Z M 3.046875 -5.078125 L 2.21875 -2.546875 L 3.984375 -2.546875 L 3.15625 -5.078125 Z M 3.046875 -5.078125 "/></g></g><g transform="translate(301.004803, 223.150487)"><g><path d="M 0.703125 0 L 0.703125 -4.84375 L 1.859375 -4.84375 L 1.859375 -4.125 L 1.953125 -4.109375 C 2.253906 -4.660156 2.742188 -4.9375 3.421875 -4.9375 C 3.984375 -4.9375 4.394531 -4.78125 4.65625 -4.46875 C 4.914062 -4.164062 5.046875 -3.722656 5.046875 -3.140625 L 5.046875 0 L 3.828125 0 L 3.828125 -3 C 3.828125 -3.320312 3.757812 -3.550781 3.625 -3.6875 C 3.5 -3.832031 3.296875 -3.90625 3.015625 -3.90625 C 2.671875 -3.90625 2.398438 -3.789062 2.203125 -3.5625 C 2.003906 -3.34375 1.90625 -2.988281 1.90625 -2.5 L 1.90625 0 Z M 0.703125 0 "/></g></g><g transform="translate(306.673026, 223.150487)"><g><path d="M 1.890625 0.09375 C 1.578125 0.09375 1.304688 0.0351562 1.078125 -0.078125 C 0.847656 -0.191406 0.671875 -0.359375 0.546875 -0.578125 C 0.429688 -0.796875 0.375 -1.0625 0.375 -1.375 C 0.375 -1.664062 0.429688 -1.90625 0.546875 -2.09375 C 0.671875 -2.289062 0.863281 -2.453125 1.125 -2.578125 C 1.382812 -2.703125 1.71875 -2.796875 2.125 -2.859375 C 2.414062 -2.910156 2.632812 -2.960938 2.78125 -3.015625 C 2.9375 -3.066406 3.039062 -3.128906 3.09375 -3.203125 C 3.144531 -3.273438 3.171875 -3.363281 3.171875 -3.46875 C 3.171875 -3.625 3.113281 -3.742188 3 -3.828125 C 2.894531 -3.910156 2.71875 -3.953125 2.46875 -3.953125 C 2.207031 -3.953125 1.953125 -3.890625 1.703125 -3.765625 C 1.460938 -3.648438 1.253906 -3.492188 1.078125 -3.296875 L 0.984375 -3.296875 L 0.484375 -4.0625 C 0.722656 -4.332031 1.019531 -4.546875 1.375 -4.703125 C 1.726562 -4.859375 2.113281 -4.9375 2.53125 -4.9375 C 3.175781 -4.9375 3.640625 -4.796875 3.921875 -4.515625 C 4.210938 -4.242188 4.359375 -3.859375 4.359375 -3.359375 L 4.359375 -1.265625 C 4.359375 -1.046875 4.453125 -0.9375 4.640625 -0.9375 C 4.710938 -0.9375 4.785156 -0.953125 4.859375 -0.984375 L 4.921875 -0.953125 L 5 -0.109375 C 4.9375 -0.0664062 4.84375 -0.03125 4.71875 0 C 4.601562 0.0195312 4.472656 0.03125 4.328125 0.03125 C 4.035156 0.03125 3.804688 -0.0195312 3.640625 -0.125 C 3.484375 -0.238281 3.367188 -0.414062 3.296875 -0.65625 L 3.21875 -0.65625 C 2.976562 -0.15625 2.535156 0.09375 1.890625 0.09375 Z M 2.265625 -0.8125 C 2.546875 -0.8125 2.769531 -0.90625 2.9375 -1.09375 C 3.113281 -1.28125 3.203125 -1.546875 3.203125 -1.890625 L 3.203125 -2.375 L 3.109375 -2.390625 C 3.035156 -2.335938 2.941406 -2.289062 2.828125 -2.25 C 2.710938 -2.207031 2.539062 -2.164062 2.3125 -2.125 C 2.050781 -2.082031 1.863281 -2.007812 1.75 -1.90625 C 1.632812 -1.800781 1.578125 -1.648438 1.578125 -1.453125 C 1.578125 -1.242188 1.632812 -1.082031 1.75 -0.96875 C 1.875 -0.863281 2.046875 -0.8125 2.265625 -0.8125 Z M 2.90625 -5.328125 L 2.078125 -5.328125 L 2.078125 -5.40625 L 2.71875 -6.78125 L 4.078125 -6.78125 L 4.078125 -6.6875 Z M 2.90625 -5.328125 "/></g></g><g transform="translate(311.775305, 223.150487)"><g><path d="M 2.015625 0.09375 C 1.578125 0.09375 1.242188 -0.0195312 1.015625 -0.25 C 0.785156 -0.488281 0.671875 -0.847656 0.671875 -1.328125 L 0.671875 -6.78125 L 1.875 -6.78125 L 1.875 -1.375 C 1.875 -1.082031 2 -0.9375 2.25 -0.9375 C 2.320312 -0.9375 2.394531 -0.945312 2.46875 -0.96875 L 2.53125 -0.953125 L 2.640625 -0.015625 C 2.578125 0.015625 2.488281 0.0390625 2.375 0.0625 C 2.269531 0.0820312 2.148438 0.09375 2.015625 0.09375 Z M 2.015625 0.09375 "/></g></g><g transform="translate(314.55677, 223.150487)"><g><path d="M 1.296875 -5.421875 C 1.078125 -5.421875 0.898438 -5.484375 0.765625 -5.609375 C 0.628906 -5.742188 0.5625 -5.921875 0.5625 -6.140625 C 0.5625 -6.335938 0.628906 -6.503906 0.765625 -6.640625 C 0.898438 -6.773438 1.078125 -6.84375 1.296875 -6.84375 C 1.441406 -6.84375 1.570312 -6.8125 1.6875 -6.75 C 1.800781 -6.6875 1.890625 -6.601562 1.953125 -6.5 C 2.015625 -6.394531 2.046875 -6.273438 2.046875 -6.140625 C 2.046875 -5.992188 2.015625 -5.867188 1.953125 -5.765625 C 1.890625 -5.660156 1.800781 -5.578125 1.6875 -5.515625 C 1.570312 -5.453125 1.441406 -5.421875 1.296875 -5.421875 Z M 0.703125 0 L 0.703125 -4.84375 L 1.90625 -4.84375 L 1.90625 0 Z M 0.703125 0 "/></g></g><g transform="translate(317.162749, 223.150487)"><g><path d="M 2.265625 0.09375 C 1.929688 0.09375 1.625 0.0546875 1.34375 -0.015625 C 1.070312 -0.0976562 0.835938 -0.207031 0.640625 -0.34375 C 0.453125 -0.476562 0.3125 -0.632812 0.21875 -0.8125 L 0.890625 -1.546875 L 0.984375 -1.546875 C 1.148438 -1.328125 1.34375 -1.160156 1.5625 -1.046875 C 1.78125 -0.941406 2.015625 -0.890625 2.265625 -0.890625 C 2.503906 -0.890625 2.679688 -0.929688 2.796875 -1.015625 C 2.921875 -1.097656 2.984375 -1.21875 2.984375 -1.375 C 2.984375 -1.5 2.941406 -1.601562 2.859375 -1.6875 C 2.773438 -1.769531 2.632812 -1.835938 2.4375 -1.890625 L 1.796875 -2.046875 C 1.316406 -2.160156 0.96875 -2.332031 0.75 -2.5625 C 0.53125 -2.800781 0.421875 -3.101562 0.421875 -3.46875 C 0.421875 -3.757812 0.492188 -4.015625 0.640625 -4.234375 C 0.796875 -4.460938 1.015625 -4.632812 1.296875 -4.75 C 1.578125 -4.875 1.898438 -4.9375 2.265625 -4.9375 C 2.703125 -4.9375 3.0625 -4.867188 3.34375 -4.734375 C 3.632812 -4.609375 3.863281 -4.441406 4.03125 -4.234375 L 3.375 -3.53125 L 3.296875 -3.53125 C 3.160156 -3.6875 3.003906 -3.796875 2.828125 -3.859375 C 2.660156 -3.929688 2.472656 -3.96875 2.265625 -3.96875 C 1.785156 -3.96875 1.546875 -3.820312 1.546875 -3.53125 C 1.546875 -3.40625 1.59375 -3.300781 1.6875 -3.21875 C 1.78125 -3.132812 1.9375 -3.070312 2.15625 -3.03125 L 2.75 -2.890625 C 3.238281 -2.785156 3.597656 -2.617188 3.828125 -2.390625 C 4.054688 -2.160156 4.171875 -1.847656 4.171875 -1.453125 C 4.171875 -1.140625 4.09375 -0.867188 3.9375 -0.640625 C 3.789062 -0.410156 3.570312 -0.226562 3.28125 -0.09375 C 3 0.03125 2.660156 0.09375 2.265625 0.09375 Z M 2.265625 0.09375 "/></g></g><g transform="translate(321.624501, 223.150487)"><g><path d="M 1.296875 -5.421875 C 1.078125 -5.421875 0.898438 -5.484375 0.765625 -5.609375 C 0.628906 -5.742188 0.5625 -5.921875 0.5625 -6.140625 C 0.5625 -6.335938 0.628906 -6.503906 0.765625 -6.640625 C 0.898438 -6.773438 1.078125 -6.84375 1.296875 -6.84375 C 1.441406 -6.84375 1.570312 -6.8125 1.6875 -6.75 C 1.800781 -6.6875 1.890625 -6.601562 1.953125 -6.5 C 2.015625 -6.394531 2.046875 -6.273438 2.046875 -6.140625 C 2.046875 -5.992188 2.015625 -5.867188 1.953125 -5.765625 C 1.890625 -5.660156 1.800781 -5.578125 1.6875 -5.515625 C 1.570312 -5.453125 1.441406 -5.421875 1.296875 -5.421875 Z M 0.703125 0 L 0.703125 -4.84375 L 1.90625 -4.84375 L 1.90625 0 Z M 0.703125 0 "/></g></g><g transform="translate(324.23048, 223.150487)"><g><path d="M 2.265625 0.09375 C 1.929688 0.09375 1.625 0.0546875 1.34375 -0.015625 C 1.070312 -0.0976562 0.835938 -0.207031 0.640625 -0.34375 C 0.453125 -0.476562 0.3125 -0.632812 0.21875 -0.8125 L 0.890625 -1.546875 L 0.984375 -1.546875 C 1.148438 -1.328125 1.34375 -1.160156 1.5625 -1.046875 C 1.78125 -0.941406 2.015625 -0.890625 2.265625 -0.890625 C 2.503906 -0.890625 2.679688 -0.929688 2.796875 -1.015625 C 2.921875 -1.097656 2.984375 -1.21875 2.984375 -1.375 C 2.984375 -1.5 2.941406 -1.601562 2.859375 -1.6875 C 2.773438 -1.769531 2.632812 -1.835938 2.4375 -1.890625 L 1.796875 -2.046875 C 1.316406 -2.160156 0.96875 -2.332031 0.75 -2.5625 C 0.53125 -2.800781 0.421875 -3.101562 0.421875 -3.46875 C 0.421875 -3.757812 0.492188 -4.015625 0.640625 -4.234375 C 0.796875 -4.460938 1.015625 -4.632812 1.296875 -4.75 C 1.578125 -4.875 1.898438 -4.9375 2.265625 -4.9375 C 2.703125 -4.9375 3.0625 -4.867188 3.34375 -4.734375 C 3.632812 -4.609375 3.863281 -4.441406 4.03125 -4.234375 L 3.375 -3.53125 L 3.296875 -3.53125 C 3.160156 -3.6875 3.003906 -3.796875 2.828125 -3.859375 C 2.660156 -3.929688 2.472656 -3.96875 2.265625 -3.96875 C 1.785156 -3.96875 1.546875 -3.820312 1.546875 -3.53125 C 1.546875 -3.40625 1.59375 -3.300781 1.6875 -3.21875 C 1.78125 -3.132812 1.9375 -3.070312 2.15625 -3.03125 L 2.75 -2.890625 C 3.238281 -2.785156 3.597656 -2.617188 3.828125 -2.390625 C 4.054688 -2.160156 4.171875 -1.847656 4.171875 -1.453125 C 4.171875 -1.140625 4.09375 -0.867188 3.9375 -0.640625 C 3.789062 -0.410156 3.570312 -0.226562 3.28125 -0.09375 C 3 0.03125 2.660156 0.09375 2.265625 0.09375 Z M 2.265625 0.09375 "/></g></g></g><g fill="#000000" fill-opacity="1"><g transform="translate(328.692232, 223.150487)"><g/></g></g><g fill="#000000" fill-opacity="1"><g transform="translate(293.290695, 235.130386)"><g><path d="M 2.390625 0.09375 C 2.003906 0.09375 1.664062 0 1.375 -0.1875 C 1.082031 -0.375 0.851562 -0.65625 0.6875 -1.03125 C 0.519531 -1.40625 0.4375 -1.867188 0.4375 -2.421875 C 0.4375 -2.972656 0.519531 -3.4375 0.6875 -3.8125 C 0.863281 -4.1875 1.101562 -4.46875 1.40625 -4.65625 C 1.707031 -4.84375 2.054688 -4.9375 2.453125 -4.9375 C 2.753906 -4.9375 3.015625 -4.882812 3.234375 -4.78125 C 3.453125 -4.675781 3.640625 -4.515625 3.796875 -4.296875 L 3.890625 -4.3125 L 3.890625 -6.78125 L 5.109375 -6.78125 L 5.109375 0 L 3.890625 0 L 3.890625 -0.625 L 3.796875 -0.640625 C 3.660156 -0.410156 3.472656 -0.226562 3.234375 -0.09375 C 3.003906 0.03125 2.722656 0.09375 2.390625 0.09375 Z M 2.78125 -0.9375 C 3.125 -0.9375 3.394531 -1.054688 3.59375 -1.296875 C 3.789062 -1.546875 3.890625 -1.921875 3.890625 -2.421875 C 3.890625 -2.910156 3.789062 -3.28125 3.59375 -3.53125 C 3.394531 -3.78125 3.125 -3.90625 2.78125 -3.90625 C 2.425781 -3.90625 2.15625 -3.785156 1.96875 -3.546875 C 1.78125 -3.304688 1.6875 -2.929688 1.6875 -2.421875 C 1.6875 -1.910156 1.78125 -1.535156 1.96875 -1.296875 C 2.15625 -1.054688 2.425781 -0.9375 2.78125 -0.9375 Z M 2.78125 -0.9375 "/></g></g><g transform="translate(299.090534, 235.130386)"><g><path d="M 4.78125 -2.140625 L 1.671875 -2.140625 C 1.703125 -1.722656 1.820312 -1.414062 2.03125 -1.21875 C 2.238281 -1.03125 2.519531 -0.9375 2.875 -0.9375 C 3.144531 -0.9375 3.363281 -0.988281 3.53125 -1.09375 C 3.707031 -1.195312 3.851562 -1.351562 3.96875 -1.5625 L 4.046875 -1.5625 L 4.859375 -1.046875 C 4.703125 -0.710938 4.460938 -0.4375 4.140625 -0.21875 C 3.828125 -0.0078125 3.40625 0.09375 2.875 0.09375 C 2.375 0.09375 1.941406 0 1.578125 -0.1875 C 1.210938 -0.382812 0.929688 -0.671875 0.734375 -1.046875 C 0.535156 -1.421875 0.4375 -1.878906 0.4375 -2.421875 C 0.4375 -2.960938 0.539062 -3.421875 0.75 -3.796875 C 0.957031 -4.179688 1.238281 -4.46875 1.59375 -4.65625 C 1.945312 -4.84375 2.34375 -4.9375 2.78125 -4.9375 C 3.46875 -4.9375 3.992188 -4.753906 4.359375 -4.390625 C 4.722656 -4.023438 4.90625 -3.492188 4.90625 -2.796875 C 4.90625 -2.535156 4.894531 -2.335938 4.875 -2.203125 Z M 3.734375 -2.9375 C 3.722656 -3.300781 3.632812 -3.566406 3.46875 -3.734375 C 3.3125 -3.898438 3.082031 -3.984375 2.78125 -3.984375 C 2.164062 -3.984375 1.804688 -3.632812 1.703125 -2.9375 Z M 3.734375 -2.9375 "/></g></g><g transform="translate(304.350751, 235.130386)"><g/></g><g transform="translate(306.469754, 235.130386)"><g><path d="M 3.140625 -6.40625 C 4.179688 -6.40625 4.972656 -6.132812 5.515625 -5.59375 C 6.066406 -5.0625 6.34375 -4.265625 6.34375 -3.203125 C 6.34375 -2.148438 6.066406 -1.351562 5.515625 -0.8125 C 4.972656 -0.269531 4.179688 0 3.140625 0 L 0.828125 0 L 0.828125 -6.40625 Z M 3.0625 -1.0625 C 3.726562 -1.0625 4.222656 -1.226562 4.546875 -1.5625 C 4.878906 -1.90625 5.046875 -2.453125 5.046875 -3.203125 C 5.046875 -3.953125 4.878906 -4.492188 4.546875 -4.828125 C 4.222656 -5.171875 3.726562 -5.34375 3.0625 -5.34375 L 2.09375 -5.34375 L 2.09375 -1.0625 Z M 3.0625 -1.0625 "/></g></g><g transform="translate(313.3269, 235.130386)"><g><path d="M 1.890625 0.09375 C 1.578125 0.09375 1.304688 0.0351562 1.078125 -0.078125 C 0.847656 -0.191406 0.671875 -0.359375 0.546875 -0.578125 C 0.429688 -0.796875 0.375 -1.0625 0.375 -1.375 C 0.375 -1.664062 0.429688 -1.90625 0.546875 -2.09375 C 0.671875 -2.289062 0.863281 -2.453125 1.125 -2.578125 C 1.382812 -2.703125 1.71875 -2.796875 2.125 -2.859375 C 2.414062 -2.910156 2.632812 -2.960938 2.78125 -3.015625 C 2.9375 -3.066406 3.039062 -3.128906 3.09375 -3.203125 C 3.144531 -3.273438 3.171875 -3.363281 3.171875 -3.46875 C 3.171875 -3.625 3.113281 -3.742188 3 -3.828125 C 2.894531 -3.910156 2.71875 -3.953125 2.46875 -3.953125 C 2.207031 -3.953125 1.953125 -3.890625 1.703125 -3.765625 C 1.460938 -3.648438 1.253906 -3.492188 1.078125 -3.296875 L 0.984375 -3.296875 L 0.484375 -4.0625 C 0.722656 -4.332031 1.019531 -4.546875 1.375 -4.703125 C 1.726562 -4.859375 2.113281 -4.9375 2.53125 -4.9375 C 3.175781 -4.9375 3.640625 -4.796875 3.921875 -4.515625 C 4.210938 -4.242188 4.359375 -3.859375 4.359375 -3.359375 L 4.359375 -1.265625 C 4.359375 -1.046875 4.453125 -0.9375 4.640625 -0.9375 C 4.710938 -0.9375 4.785156 -0.953125 4.859375 -0.984375 L 4.921875 -0.953125 L 5 -0.109375 C 4.9375 -0.0664062 4.84375 -0.03125 4.71875 0 C 4.601562 0.0195312 4.472656 0.03125 4.328125 0.03125 C 4.035156 0.03125 3.804688 -0.0195312 3.640625 -0.125 C 3.484375 -0.238281 3.367188 -0.414062 3.296875 -0.65625 L 3.21875 -0.65625 C 2.976562 -0.15625 2.535156 0.09375 1.890625 0.09375 Z M 2.265625 -0.8125 C 2.546875 -0.8125 2.769531 -0.90625 2.9375 -1.09375 C 3.113281 -1.28125 3.203125 -1.546875 3.203125 -1.890625 L 3.203125 -2.375 L 3.109375 -2.390625 C 3.035156 -2.335938 2.941406 -2.289062 2.828125 -2.25 C 2.710938 -2.207031 2.539062 -2.164062 2.3125 -2.125 C 2.050781 -2.082031 1.863281 -2.007812 1.75 -1.90625 C 1.632812 -1.800781 1.578125 -1.648438 1.578125 -1.453125 C 1.578125 -1.242188 1.632812 -1.082031 1.75 -0.96875 C 1.875 -0.863281 2.046875 -0.8125 2.265625 -0.8125 Z M 2.265625 -0.8125 "/></g></g><g transform="translate(318.429179, 235.130386)"><g><path d="M 3.34375 -1.15625 L 3.65625 -0.25 C 3.519531 -0.144531 3.351562 -0.0625 3.15625 0 C 2.957031 0.0625 2.734375 0.09375 2.484375 0.09375 C 1.960938 0.09375 1.5625 -0.046875 1.28125 -0.328125 C 1.007812 -0.617188 0.875 -1.035156 0.875 -1.578125 L 0.875 -3.875 L 0.140625 -3.875 L 0.140625 -4.84375 L 0.875 -4.84375 L 0.875 -5.78125 L 2.09375 -5.984375 L 2.09375 -4.84375 L 3.46875 -4.84375 L 3.46875 -3.875 L 2.09375 -3.875 L 2.09375 -1.671875 C 2.09375 -1.429688 2.140625 -1.253906 2.234375 -1.140625 C 2.335938 -1.035156 2.488281 -0.984375 2.6875 -0.984375 C 2.894531 -0.984375 3.082031 -1.039062 3.25 -1.15625 Z M 3.34375 -1.15625 "/></g></g><g transform="translate(322.188984, 235.130386)"><g><path d="M 2.8125 0.09375 C 2.332031 0.09375 1.914062 0 1.5625 -0.1875 C 1.207031 -0.382812 0.929688 -0.671875 0.734375 -1.046875 C 0.535156 -1.429688 0.4375 -1.890625 0.4375 -2.421875 C 0.4375 -2.953125 0.535156 -3.40625 0.734375 -3.78125 C 0.929688 -4.15625 1.207031 -4.441406 1.5625 -4.640625 C 1.914062 -4.835938 2.332031 -4.9375 2.8125 -4.9375 C 3.28125 -4.9375 3.691406 -4.835938 4.046875 -4.640625 C 4.410156 -4.441406 4.691406 -4.15625 4.890625 -3.78125 C 5.085938 -3.40625 5.1875 -2.953125 5.1875 -2.421875 C 5.1875 -1.890625 5.085938 -1.429688 4.890625 -1.046875 C 4.691406 -0.671875 4.410156 -0.382812 4.046875 -0.1875 C 3.691406 0 3.28125 0.09375 2.8125 0.09375 Z M 2.8125 -0.9375 C 3.5625 -0.9375 3.9375 -1.429688 3.9375 -2.421875 C 3.9375 -2.929688 3.835938 -3.304688 3.640625 -3.546875 C 3.453125 -3.785156 3.175781 -3.90625 2.8125 -3.90625 C 2.0625 -3.90625 1.6875 -3.410156 1.6875 -2.421875 C 1.6875 -1.429688 2.0625 -0.9375 2.8125 -0.9375 Z M 2.8125 -0.9375 "/></g></g><g transform="translate(327.813336, 235.130386)"><g><path d="M 2.265625 0.09375 C 1.929688 0.09375 1.625 0.0546875 1.34375 -0.015625 C 1.070312 -0.0976562 0.835938 -0.207031 0.640625 -0.34375 C 0.453125 -0.476562 0.3125 -0.632812 0.21875 -0.8125 L 0.890625 -1.546875 L 0.984375 -1.546875 C 1.148438 -1.328125 1.34375 -1.160156 1.5625 -1.046875 C 1.78125 -0.941406 2.015625 -0.890625 2.265625 -0.890625 C 2.503906 -0.890625 2.679688 -0.929688 2.796875 -1.015625 C 2.921875 -1.097656 2.984375 -1.21875 2.984375 -1.375 C 2.984375 -1.5 2.941406 -1.601562 2.859375 -1.6875 C 2.773438 -1.769531 2.632812 -1.835938 2.4375 -1.890625 L 1.796875 -2.046875 C 1.316406 -2.160156 0.96875 -2.332031 0.75 -2.5625 C 0.53125 -2.800781 0.421875 -3.101562 0.421875 -3.46875 C 0.421875 -3.757812 0.492188 -4.015625 0.640625 -4.234375 C 0.796875 -4.460938 1.015625 -4.632812 1.296875 -4.75 C 1.578125 -4.875 1.898438 -4.9375 2.265625 -4.9375 C 2.703125 -4.9375 3.0625 -4.867188 3.34375 -4.734375 C 3.632812 -4.609375 3.863281 -4.441406 4.03125 -4.234375 L 3.375 -3.53125 L 3.296875 -3.53125 C 3.160156 -3.6875 3.003906 -3.796875 2.828125 -3.859375 C 2.660156 -3.929688 2.472656 -3.96875 2.265625 -3.96875 C 1.785156 -3.96875 1.546875 -3.820312 1.546875 -3.53125 C 1.546875 -3.40625 1.59375 -3.300781 1.6875 -3.21875 C 1.78125 -3.132812 1.9375 -3.070312 2.15625 -3.03125 L 2.75 -2.890625 C 3.238281 -2.785156 3.597656 -2.617188 3.828125 -2.390625 C 4.054688 -2.160156 4.171875 -1.847656 4.171875 -1.453125 C 4.171875 -1.140625 4.09375 -0.867188 3.9375 -0.640625 C 3.789062 -0.410156 3.570312 -0.226562 3.28125 -0.09375 C 3 0.03125 2.660156 0.09375 2.265625 0.09375 Z M 2.265625 0.09375 "/></g></g></g><g fill="#000000" fill-opacity="1"><g transform="translate(203.944111, 223.150487)"><g><path d="M 3.3125 -6.40625 C 3.769531 -6.40625 4.160156 -6.320312 4.484375 -6.15625 C 4.816406 -5.988281 5.066406 -5.753906 5.234375 -5.453125 C 5.398438 -5.148438 5.484375 -4.800781 5.484375 -4.40625 C 5.484375 -4 5.398438 -3.644531 5.234375 -3.34375 C 5.066406 -3.039062 4.816406 -2.804688 4.484375 -2.640625 C 4.160156 -2.472656 3.769531 -2.390625 3.3125 -2.390625 L 2.09375 -2.390625 L 2.09375 0 L 0.828125 0 L 0.828125 -6.40625 Z M 3.140625 -3.390625 C 3.847656 -3.390625 4.203125 -3.726562 4.203125 -4.40625 C 4.203125 -5.070312 3.847656 -5.40625 3.140625 -5.40625 L 2.09375 -5.40625 L 2.09375 -3.390625 Z M 3.140625 -3.390625 "/></g></g><g transform="translate(209.80537, 223.150487)"><g><path d="M 0.703125 0 L 0.703125 -4.84375 L 1.875 -4.84375 L 1.875 -4.125 L 1.96875 -4.109375 C 2.082031 -4.367188 2.234375 -4.5625 2.421875 -4.6875 C 2.617188 -4.8125 2.851562 -4.875 3.125 -4.875 C 3.394531 -4.875 3.601562 -4.832031 3.75 -4.75 L 3.546875 -3.6875 L 3.453125 -3.671875 C 3.367188 -3.703125 3.289062 -3.722656 3.21875 -3.734375 C 3.144531 -3.753906 3.054688 -3.765625 2.953125 -3.765625 C 2.617188 -3.765625 2.359375 -3.644531 2.171875 -3.40625 C 1.992188 -3.164062 1.90625 -2.785156 1.90625 -2.265625 L 1.90625 0 Z M 0.703125 0 "/></g></g><g transform="translate(213.600272, 223.150487)"><g><path d="M 2.8125 0.09375 C 2.332031 0.09375 1.914062 0 1.5625 -0.1875 C 1.207031 -0.382812 0.929688 -0.671875 0.734375 -1.046875 C 0.535156 -1.429688 0.4375 -1.890625 0.4375 -2.421875 C 0.4375 -2.953125 0.535156 -3.40625 0.734375 -3.78125 C 0.929688 -4.15625 1.207031 -4.441406 1.5625 -4.640625 C 1.914062 -4.835938 2.332031 -4.9375 2.8125 -4.9375 C 3.28125 -4.9375 3.691406 -4.835938 4.046875 -4.640625 C 4.410156 -4.441406 4.691406 -4.15625 4.890625 -3.78125 C 5.085938 -3.40625 5.1875 -2.953125 5.1875 -2.421875 C 5.1875 -1.890625 5.085938 -1.429688 4.890625 -1.046875 C 4.691406 -0.671875 4.410156 -0.382812 4.046875 -0.1875 C 3.691406 0 3.28125 0.09375 2.8125 0.09375 Z M 2.8125 -0.9375 C 3.5625 -0.9375 3.9375 -1.429688 3.9375 -2.421875 C 3.9375 -2.929688 3.835938 -3.304688 3.640625 -3.546875 C 3.453125 -3.785156 3.175781 -3.90625 2.8125 -3.90625 C 2.0625 -3.90625 1.6875 -3.410156 1.6875 -2.421875 C 1.6875 -1.429688 2.0625 -0.9375 2.8125 -0.9375 Z M 2.8125 -0.9375 "/></g></g><g transform="translate(219.224624, 223.150487)"><g><path d="M 2.390625 0.09375 C 2.003906 0.09375 1.664062 0 1.375 -0.1875 C 1.082031 -0.375 0.851562 -0.65625 0.6875 -1.03125 C 0.519531 -1.40625 0.4375 -1.867188 0.4375 -2.421875 C 0.4375 -2.972656 0.519531 -3.4375 0.6875 -3.8125 C 0.863281 -4.1875 1.101562 -4.46875 1.40625 -4.65625 C 1.707031 -4.84375 2.054688 -4.9375 2.453125 -4.9375 C 2.753906 -4.9375 3.015625 -4.882812 3.234375 -4.78125 C 3.453125 -4.675781 3.640625 -4.515625 3.796875 -4.296875 L 3.890625 -4.3125 L 3.890625 -6.78125 L 5.109375 -6.78125 L 5.109375 0 L 3.890625 0 L 3.890625 -0.625 L 3.796875 -0.640625 C 3.660156 -0.410156 3.472656 -0.226562 3.234375 -0.09375 C 3.003906 0.03125 2.722656 0.09375 2.390625 0.09375 Z M 2.78125 -0.9375 C 3.125 -0.9375 3.394531 -1.054688 3.59375 -1.296875 C 3.789062 -1.546875 3.890625 -1.921875 3.890625 -2.421875 C 3.890625 -2.910156 3.789062 -3.28125 3.59375 -3.53125 C 3.394531 -3.78125 3.125 -3.90625 2.78125 -3.90625 C 2.425781 -3.90625 2.15625 -3.785156 1.96875 -3.546875 C 1.78125 -3.304688 1.6875 -2.929688 1.6875 -2.421875 C 1.6875 -1.910156 1.78125 -1.535156 1.96875 -1.296875 C 2.15625 -1.054688 2.425781 -0.9375 2.78125 -0.9375 Z M 2.78125 -0.9375 "/></g></g><g transform="translate(225.024462, 223.150487)"><g><path d="M 2.21875 0.09375 C 1.675781 0.09375 1.273438 -0.0507812 1.015625 -0.34375 C 0.753906 -0.644531 0.625 -1.070312 0.625 -1.625 L 0.625 -4.84375 L 1.84375 -4.84375 L 1.84375 -1.78125 C 1.84375 -1.488281 1.90625 -1.273438 2.03125 -1.140625 C 2.15625 -1.003906 2.351562 -0.9375 2.625 -0.9375 C 2.957031 -0.9375 3.21875 -1.046875 3.40625 -1.265625 C 3.59375 -1.484375 3.6875 -1.832031 3.6875 -2.3125 L 3.6875 -4.84375 L 4.90625 -4.84375 L 4.90625 0 L 3.734375 0 L 3.734375 -0.703125 L 3.640625 -0.734375 C 3.484375 -0.453125 3.289062 -0.242188 3.0625 -0.109375 C 2.84375 0.0234375 2.5625 0.09375 2.21875 0.09375 Z M 2.21875 0.09375 "/></g></g><g transform="translate(230.622491, 223.150487)"><g><path d="M 2.828125 0.09375 C 2.359375 0.09375 1.941406 0 1.578125 -0.1875 C 1.222656 -0.382812 0.941406 -0.671875 0.734375 -1.046875 C 0.535156 -1.429688 0.4375 -1.890625 0.4375 -2.421875 C 0.4375 -2.953125 0.535156 -3.40625 0.734375 -3.78125 C 0.941406 -4.15625 1.222656 -4.441406 1.578125 -4.640625 C 1.929688 -4.835938 2.335938 -4.9375 2.796875 -4.9375 C 3.816406 -4.9375 4.472656 -4.566406 4.765625 -3.828125 L 3.921875 -3.21875 L 3.828125 -3.21875 C 3.734375 -3.445312 3.601562 -3.617188 3.4375 -3.734375 C 3.28125 -3.847656 3.066406 -3.90625 2.796875 -3.90625 C 2.441406 -3.90625 2.164062 -3.78125 1.96875 -3.53125 C 1.78125 -3.289062 1.6875 -2.921875 1.6875 -2.421875 C 1.6875 -1.921875 1.785156 -1.546875 1.984375 -1.296875 C 2.179688 -1.054688 2.460938 -0.9375 2.828125 -0.9375 C 3.085938 -0.9375 3.304688 -1.003906 3.484375 -1.140625 C 3.671875 -1.285156 3.800781 -1.492188 3.875 -1.765625 L 3.96875 -1.765625 L 4.84375 -1.296875 C 4.71875 -0.890625 4.488281 -0.554688 4.15625 -0.296875 C 3.820312 -0.0351562 3.378906 0.09375 2.828125 0.09375 Z M 2.828125 0.09375 "/></g></g><g transform="translate(235.610704, 223.150487)"><g><path d="M 2.828125 0.09375 C 2.359375 0.09375 1.941406 0 1.578125 -0.1875 C 1.222656 -0.382812 0.941406 -0.671875 0.734375 -1.046875 C 0.535156 -1.429688 0.4375 -1.890625 0.4375 -2.421875 C 0.4375 -2.953125 0.535156 -3.40625 0.734375 -3.78125 C 0.941406 -4.15625 1.222656 -4.441406 1.578125 -4.640625 C 1.929688 -4.835938 2.335938 -4.9375 2.796875 -4.9375 C 3.816406 -4.9375 4.472656 -4.566406 4.765625 -3.828125 L 3.921875 -3.21875 L 3.828125 -3.21875 C 3.734375 -3.445312 3.601562 -3.617188 3.4375 -3.734375 C 3.28125 -3.847656 3.066406 -3.90625 2.796875 -3.90625 C 2.441406 -3.90625 2.164062 -3.78125 1.96875 -3.53125 C 1.78125 -3.289062 1.6875 -2.921875 1.6875 -2.421875 C 1.6875 -1.921875 1.785156 -1.546875 1.984375 -1.296875 C 2.179688 -1.054688 2.460938 -0.9375 2.828125 -0.9375 C 3.085938 -0.9375 3.304688 -1.003906 3.484375 -1.140625 C 3.671875 -1.285156 3.800781 -1.492188 3.875 -1.765625 L 3.96875 -1.765625 L 4.84375 -1.296875 C 4.71875 -0.890625 4.488281 -0.554688 4.15625 -0.296875 C 3.820312 -0.0351562 3.378906 0.09375 2.828125 0.09375 Z M 2.828125 0.09375 "/></g></g><g transform="translate(240.598916, 223.150487)"><g><path d="M 1.296875 -5.421875 C 1.078125 -5.421875 0.898438 -5.484375 0.765625 -5.609375 C 0.628906 -5.742188 0.5625 -5.921875 0.5625 -6.140625 C 0.5625 -6.335938 0.628906 -6.503906 0.765625 -6.640625 C 0.898438 -6.773438 1.078125 -6.84375 1.296875 -6.84375 C 1.441406 -6.84375 1.570312 -6.8125 1.6875 -6.75 C 1.800781 -6.6875 1.890625 -6.601562 1.953125 -6.5 C 2.015625 -6.394531 2.046875 -6.273438 2.046875 -6.140625 C 2.046875 -5.992188 2.015625 -5.867188 1.953125 -5.765625 C 1.890625 -5.660156 1.800781 -5.578125 1.6875 -5.515625 C 1.570312 -5.453125 1.441406 -5.421875 1.296875 -5.421875 Z M 0.703125 0 L 0.703125 -4.84375 L 1.90625 -4.84375 L 1.90625 0 Z M 0.703125 0 "/></g></g><g transform="translate(243.204895, 223.150487)"><g><path d="M 2.8125 0.09375 C 2.332031 0.09375 1.914062 0 1.5625 -0.1875 C 1.207031 -0.382812 0.929688 -0.671875 0.734375 -1.046875 C 0.535156 -1.429688 0.4375 -1.890625 0.4375 -2.421875 C 0.4375 -2.953125 0.535156 -3.40625 0.734375 -3.78125 C 0.929688 -4.15625 1.207031 -4.441406 1.5625 -4.640625 C 1.914062 -4.835938 2.332031 -4.9375 2.8125 -4.9375 C 3.28125 -4.9375 3.691406 -4.835938 4.046875 -4.640625 C 4.410156 -4.441406 4.691406 -4.15625 4.890625 -3.78125 C 5.085938 -3.40625 5.1875 -2.953125 5.1875 -2.421875 C 5.1875 -1.890625 5.085938 -1.429688 4.890625 -1.046875 C 4.691406 -0.671875 4.410156 -0.382812 4.046875 -0.1875 C 3.691406 0 3.28125 0.09375 2.8125 0.09375 Z M 2.8125 -0.9375 C 3.5625 -0.9375 3.9375 -1.429688 3.9375 -2.421875 C 3.9375 -2.929688 3.835938 -3.304688 3.640625 -3.546875 C 3.453125 -3.785156 3.175781 -3.90625 2.8125 -3.90625 C 2.0625 -3.90625 1.6875 -3.410156 1.6875 -2.421875 C 1.6875 -1.429688 2.0625 -0.9375 2.8125 -0.9375 Z M 3.1875 -5.328125 L 2.359375 -5.328125 L 2.359375 -5.40625 L 3 -6.78125 L 4.359375 -6.78125 L 4.359375 -6.6875 Z M 3.1875 -5.328125 "/></g></g><g transform="translate(248.829247, 223.150487)"><g><path d="M 0.703125 0 L 0.703125 -4.84375 L 1.859375 -4.84375 L 1.859375 -4.125 L 1.953125 -4.109375 C 2.253906 -4.660156 2.742188 -4.9375 3.421875 -4.9375 C 3.984375 -4.9375 4.394531 -4.78125 4.65625 -4.46875 C 4.914062 -4.164062 5.046875 -3.722656 5.046875 -3.140625 L 5.046875 0 L 3.828125 0 L 3.828125 -3 C 3.828125 -3.320312 3.757812 -3.550781 3.625 -3.6875 C 3.5 -3.832031 3.296875 -3.90625 3.015625 -3.90625 C 2.671875 -3.90625 2.398438 -3.789062 2.203125 -3.5625 C 2.003906 -3.34375 1.90625 -2.988281 1.90625 -2.5 L 1.90625 0 Z M 0.703125 0 "/></g></g></g><g fill="#000000" fill-opacity="1"><g transform="translate(201.136322, 235.130386)"><g/></g></g><g fill="#000000" fill-opacity="1"><g transform="translate(203.255325, 235.130386)"><g><path d="M 2.390625 0.09375 C 2.003906 0.09375 1.664062 0 1.375 -0.1875 C 1.082031 -0.375 0.851562 -0.65625 0.6875 -1.03125 C 0.519531 -1.40625 0.4375 -1.867188 0.4375 -2.421875 C 0.4375 -2.972656 0.519531 -3.4375 0.6875 -3.8125 C 0.863281 -4.1875 1.101562 -4.46875 1.40625 -4.65625 C 1.707031 -4.84375 2.054688 -4.9375 2.453125 -4.9375 C 2.753906 -4.9375 3.015625 -4.882812 3.234375 -4.78125 C 3.453125 -4.675781 3.640625 -4.515625 3.796875 -4.296875 L 3.890625 -4.3125 L 3.890625 -6.78125 L 5.109375 -6.78125 L 5.109375 0 L 3.890625 0 L 3.890625 -0.625 L 3.796875 -0.640625 C 3.660156 -0.410156 3.472656 -0.226562 3.234375 -0.09375 C 3.003906 0.03125 2.722656 0.09375 2.390625 0.09375 Z M 2.78125 -0.9375 C 3.125 -0.9375 3.394531 -1.054688 3.59375 -1.296875 C 3.789062 -1.546875 3.890625 -1.921875 3.890625 -2.421875 C 3.890625 -2.910156 3.789062 -3.28125 3.59375 -3.53125 C 3.394531 -3.78125 3.125 -3.90625 2.78125 -3.90625 C 2.425781 -3.90625 2.15625 -3.785156 1.96875 -3.546875 C 1.78125 -3.304688 1.6875 -2.929688 1.6875 -2.421875 C 1.6875 -1.910156 1.78125 -1.535156 1.96875 -1.296875 C 2.15625 -1.054688 2.425781 -0.9375 2.78125 -0.9375 Z M 2.78125 -0.9375 "/></g></g><g transform="translate(209.055164, 235.130386)"><g><path d="M 4.78125 -2.140625 L 1.671875 -2.140625 C 1.703125 -1.722656 1.820312 -1.414062 2.03125 -1.21875 C 2.238281 -1.03125 2.519531 -0.9375 2.875 -0.9375 C 3.144531 -0.9375 3.363281 -0.988281 3.53125 -1.09375 C 3.707031 -1.195312 3.851562 -1.351562 3.96875 -1.5625 L 4.046875 -1.5625 L 4.859375 -1.046875 C 4.703125 -0.710938 4.460938 -0.4375 4.140625 -0.21875 C 3.828125 -0.0078125 3.40625 0.09375 2.875 0.09375 C 2.375 0.09375 1.941406 0 1.578125 -0.1875 C 1.210938 -0.382812 0.929688 -0.671875 0.734375 -1.046875 C 0.535156 -1.421875 0.4375 -1.878906 0.4375 -2.421875 C 0.4375 -2.960938 0.539062 -3.421875 0.75 -3.796875 C 0.957031 -4.179688 1.238281 -4.46875 1.59375 -4.65625 C 1.945312 -4.84375 2.34375 -4.9375 2.78125 -4.9375 C 3.46875 -4.9375 3.992188 -4.753906 4.359375 -4.390625 C 4.722656 -4.023438 4.90625 -3.492188 4.90625 -2.796875 C 4.90625 -2.535156 4.894531 -2.335938 4.875 -2.203125 Z M 3.734375 -2.9375 C 3.722656 -3.300781 3.632812 -3.566406 3.46875 -3.734375 C 3.3125 -3.898438 3.082031 -3.984375 2.78125 -3.984375 C 2.164062 -3.984375 1.804688 -3.632812 1.703125 -2.9375 Z M 3.734375 -2.9375 "/></g></g><g transform="translate(214.315381, 235.130386)"><g/></g><g transform="translate(216.434384, 235.130386)"><g><path d="M 6.15625 0 L 4.828125 0 L 4.34375 -1.484375 L 1.875 -1.484375 L 1.40625 0 L 0.09375 0 L 2.3125 -6.40625 L 3.9375 -6.40625 Z M 3.046875 -5.078125 L 2.21875 -2.546875 L 3.984375 -2.546875 L 3.15625 -5.078125 Z M 3.046875 -5.078125 "/></g></g><g transform="translate(222.686101, 235.130386)"><g><path d="M 0.703125 0 L 0.703125 -4.84375 L 1.859375 -4.84375 L 1.859375 -4.125 L 1.953125 -4.109375 C 2.253906 -4.660156 2.742188 -4.9375 3.421875 -4.9375 C 3.984375 -4.9375 4.394531 -4.78125 4.65625 -4.46875 C 4.914062 -4.164062 5.046875 -3.722656 5.046875 -3.140625 L 5.046875 0 L 3.828125 0 L 3.828125 -3 C 3.828125 -3.320312 3.757812 -3.550781 3.625 -3.6875 C 3.5 -3.832031 3.296875 -3.90625 3.015625 -3.90625 C 2.671875 -3.90625 2.398438 -3.789062 2.203125 -3.5625 C 2.003906 -3.34375 1.90625 -2.988281 1.90625 -2.5 L 1.90625 0 Z M 0.703125 0 "/></g></g><g transform="translate(228.354324, 235.130386)"><g><path d="M 2.21875 0.09375 C 1.675781 0.09375 1.273438 -0.0507812 1.015625 -0.34375 C 0.753906 -0.644531 0.625 -1.070312 0.625 -1.625 L 0.625 -4.84375 L 1.84375 -4.84375 L 1.84375 -1.78125 C 1.84375 -1.488281 1.90625 -1.273438 2.03125 -1.140625 C 2.15625 -1.003906 2.351562 -0.9375 2.625 -0.9375 C 2.957031 -0.9375 3.21875 -1.046875 3.40625 -1.265625 C 3.59375 -1.484375 3.6875 -1.832031 3.6875 -2.3125 L 3.6875 -4.84375 L 4.90625 -4.84375 L 4.90625 0 L 3.734375 0 L 3.734375 -0.703125 L 3.640625 -0.734375 C 3.484375 -0.453125 3.289062 -0.242188 3.0625 -0.109375 C 2.84375 0.0234375 2.5625 0.09375 2.21875 0.09375 Z M 2.21875 0.09375 "/></g></g><g transform="translate(233.952353, 235.130386)"><g><path d="M 0.703125 0 L 0.703125 -4.84375 L 1.859375 -4.84375 L 1.859375 -4.125 L 1.953125 -4.109375 C 2.253906 -4.660156 2.742188 -4.9375 3.421875 -4.9375 C 3.984375 -4.9375 4.394531 -4.78125 4.65625 -4.46875 C 4.914062 -4.164062 5.046875 -3.722656 5.046875 -3.140625 L 5.046875 0 L 3.828125 0 L 3.828125 -3 C 3.828125 -3.320312 3.757812 -3.550781 3.625 -3.6875 C 3.5 -3.832031 3.296875 -3.90625 3.015625 -3.90625 C 2.671875 -3.90625 2.398438 -3.789062 2.203125 -3.5625 C 2.003906 -3.34375 1.90625 -2.988281 1.90625 -2.5 L 1.90625 0 Z M 0.703125 0 "/></g></g><g transform="translate(239.620577, 235.130386)"><g><path d="M 2.828125 0.09375 C 2.359375 0.09375 1.941406 0 1.578125 -0.1875 C 1.222656 -0.382812 0.941406 -0.671875 0.734375 -1.046875 C 0.535156 -1.429688 0.4375 -1.890625 0.4375 -2.421875 C 0.4375 -2.953125 0.535156 -3.40625 0.734375 -3.78125 C 0.941406 -4.15625 1.222656 -4.441406 1.578125 -4.640625 C 1.929688 -4.835938 2.335938 -4.9375 2.796875 -4.9375 C 3.816406 -4.9375 4.472656 -4.566406 4.765625 -3.828125 L 3.921875 -3.21875 L 3.828125 -3.21875 C 3.734375 -3.445312 3.601562 -3.617188 3.4375 -3.734375 C 3.28125 -3.847656 3.066406 -3.90625 2.796875 -3.90625 C 2.441406 -3.90625 2.164062 -3.78125 1.96875 -3.53125 C 1.78125 -3.289062 1.6875 -2.921875 1.6875 -2.421875 C 1.6875 -1.921875 1.785156 -1.546875 1.984375 -1.296875 C 2.179688 -1.054688 2.460938 -0.9375 2.828125 -0.9375 C 3.085938 -0.9375 3.304688 -1.003906 3.484375 -1.140625 C 3.671875 -1.285156 3.800781 -1.492188 3.875 -1.765625 L 3.96875 -1.765625 L 4.84375 -1.296875 C 4.71875 -0.890625 4.488281 -0.554688 4.15625 -0.296875 C 3.820312 -0.0351562 3.378906 0.09375 2.828125 0.09375 Z M 2.828125 0.09375 "/></g></g><g transform="translate(244.608789, 235.130386)"><g><path d="M 1.296875 -5.421875 C 1.078125 -5.421875 0.898438 -5.484375 0.765625 -5.609375 C 0.628906 -5.742188 0.5625 -5.921875 0.5625 -6.140625 C 0.5625 -6.335938 0.628906 -6.503906 0.765625 -6.640625 C 0.898438 -6.773438 1.078125 -6.84375 1.296875 -6.84375 C 1.441406 -6.84375 1.570312 -6.8125 1.6875 -6.75 C 1.800781 -6.6875 1.890625 -6.601562 1.953125 -6.5 C 2.015625 -6.394531 2.046875 -6.273438 2.046875 -6.140625 C 2.046875 -5.992188 2.015625 -5.867188 1.953125 -5.765625 C 1.890625 -5.660156 1.800781 -5.578125 1.6875 -5.515625 C 1.570312 -5.453125 1.441406 -5.421875 1.296875 -5.421875 Z M 0.703125 0 L 0.703125 -4.84375 L 1.90625 -4.84375 L 1.90625 0 Z M 0.703125 0 "/></g></g><g transform="translate(247.214768, 235.130386)"><g><path d="M 2.8125 0.09375 C 2.332031 0.09375 1.914062 0 1.5625 -0.1875 C 1.207031 -0.382812 0.929688 -0.671875 0.734375 -1.046875 C 0.535156 -1.429688 0.4375 -1.890625 0.4375 -2.421875 C 0.4375 -2.953125 0.535156 -3.40625 0.734375 -3.78125 C 0.929688 -4.15625 1.207031 -4.441406 1.5625 -4.640625 C 1.914062 -4.835938 2.332031 -4.9375 2.8125 -4.9375 C 3.28125 -4.9375 3.691406 -4.835938 4.046875 -4.640625 C 4.410156 -4.441406 4.691406 -4.15625 4.890625 -3.78125 C 5.085938 -3.40625 5.1875 -2.953125 5.1875 -2.421875 C 5.1875 -1.890625 5.085938 -1.429688 4.890625 -1.046875 C 4.691406 -0.671875 4.410156 -0.382812 4.046875 -0.1875 C 3.691406 0 3.28125 0.09375 2.8125 0.09375 Z M 2.8125 -0.9375 C 3.5625 -0.9375 3.9375 -1.429688 3.9375 -2.421875 C 3.9375 -2.929688 3.835938 -3.304688 3.640625 -3.546875 C 3.453125 -3.785156 3.175781 -3.90625 2.8125 -3.90625 C 2.0625 -3.90625 1.6875 -3.410156 1.6875 -2.421875 C 1.6875 -1.429688 2.0625 -0.9375 2.8125 -0.9375 Z M 2.8125 -0.9375 "/></g></g><g transform="translate(252.83912, 235.130386)"><g><path d="M 2.265625 0.09375 C 1.929688 0.09375 1.625 0.0546875 1.34375 -0.015625 C 1.070312 -0.0976562 0.835938 -0.207031 0.640625 -0.34375 C 0.453125 -0.476562 0.3125 -0.632812 0.21875 -0.8125 L 0.890625 -1.546875 L 0.984375 -1.546875 C 1.148438 -1.328125 1.34375 -1.160156 1.5625 -1.046875 C 1.78125 -0.941406 2.015625 -0.890625 2.265625 -0.890625 C 2.503906 -0.890625 2.679688 -0.929688 2.796875 -1.015625 C 2.921875 -1.097656 2.984375 -1.21875 2.984375 -1.375 C 2.984375 -1.5 2.941406 -1.601562 2.859375 -1.6875 C 2.773438 -1.769531 2.632812 -1.835938 2.4375 -1.890625 L 1.796875 -2.046875 C 1.316406 -2.160156 0.96875 -2.332031 0.75 -2.5625 C 0.53125 -2.800781 0.421875 -3.101562 0.421875 -3.46875 C 0.421875 -3.757812 0.492188 -4.015625 0.640625 -4.234375 C 0.796875 -4.460938 1.015625 -4.632812 1.296875 -4.75 C 1.578125 -4.875 1.898438 -4.9375 2.265625 -4.9375 C 2.703125 -4.9375 3.0625 -4.867188 3.34375 -4.734375 C 3.632812 -4.609375 3.863281 -4.441406 4.03125 -4.234375 L 3.375 -3.53125 L 3.296875 -3.53125 C 3.160156 -3.6875 3.003906 -3.796875 2.828125 -3.859375 C 2.660156 -3.929688 2.472656 -3.96875 2.265625 -3.96875 C 1.785156 -3.96875 1.546875 -3.820312 1.546875 -3.53125 C 1.546875 -3.40625 1.59375 -3.300781 1.6875 -3.21875 C 1.78125 -3.132812 1.9375 -3.070312 2.15625 -3.03125 L 2.75 -2.890625 C 3.238281 -2.785156 3.597656 -2.617188 3.828125 -2.390625 C 4.054688 -2.160156 4.171875 -1.847656 4.171875 -1.453125 C 4.171875 -1.140625 4.09375 -0.867188 3.9375 -0.640625 C 3.789062 -0.410156 3.570312 -0.226562 3.28125 -0.09375 C 3 0.03125 2.660156 0.09375 2.265625 0.09375 Z M 2.265625 0.09375 "/></g></g></g><g fill="#000000" fill-opacity="1"><g transform="translate(122.074518, 223.150487)"><g><path d="M 3.3125 -6.40625 C 3.769531 -6.40625 4.160156 -6.320312 4.484375 -6.15625 C 4.816406 -5.988281 5.066406 -5.753906 5.234375 -5.453125 C 5.398438 -5.148438 5.484375 -4.800781 5.484375 -4.40625 C 5.484375 -4 5.398438 -3.644531 5.234375 -3.34375 C 5.066406 -3.039062 4.816406 -2.804688 4.484375 -2.640625 C 4.160156 -2.472656 3.769531 -2.390625 3.3125 -2.390625 L 2.09375 -2.390625 L 2.09375 0 L 0.828125 0 L 0.828125 -6.40625 Z M 3.140625 -3.390625 C 3.847656 -3.390625 4.203125 -3.726562 4.203125 -4.40625 C 4.203125 -5.070312 3.847656 -5.40625 3.140625 -5.40625 L 2.09375 -5.40625 L 2.09375 -3.390625 Z M 3.140625 -3.390625 "/></g></g><g transform="translate(127.935777, 223.150487)"><g><path d="M 2.015625 0.09375 C 1.578125 0.09375 1.242188 -0.0195312 1.015625 -0.25 C 0.785156 -0.488281 0.671875 -0.847656 0.671875 -1.328125 L 0.671875 -6.78125 L 1.875 -6.78125 L 1.875 -1.375 C 1.875 -1.082031 2 -0.9375 2.25 -0.9375 C 2.320312 -0.9375 2.394531 -0.945312 2.46875 -0.96875 L 2.53125 -0.953125 L 2.640625 -0.015625 C 2.578125 0.015625 2.488281 0.0390625 2.375 0.0625 C 2.269531 0.0820312 2.148438 0.09375 2.015625 0.09375 Z M 2.015625 0.09375 "/></g></g><g transform="translate(130.717243, 223.150487)"><g><path d="M 1.890625 0.09375 C 1.578125 0.09375 1.304688 0.0351562 1.078125 -0.078125 C 0.847656 -0.191406 0.671875 -0.359375 0.546875 -0.578125 C 0.429688 -0.796875 0.375 -1.0625 0.375 -1.375 C 0.375 -1.664062 0.429688 -1.90625 0.546875 -2.09375 C 0.671875 -2.289062 0.863281 -2.453125 1.125 -2.578125 C 1.382812 -2.703125 1.71875 -2.796875 2.125 -2.859375 C 2.414062 -2.910156 2.632812 -2.960938 2.78125 -3.015625 C 2.9375 -3.066406 3.039062 -3.128906 3.09375 -3.203125 C 3.144531 -3.273438 3.171875 -3.363281 3.171875 -3.46875 C 3.171875 -3.625 3.113281 -3.742188 3 -3.828125 C 2.894531 -3.910156 2.71875 -3.953125 2.46875 -3.953125 C 2.207031 -3.953125 1.953125 -3.890625 1.703125 -3.765625 C 1.460938 -3.648438 1.253906 -3.492188 1.078125 -3.296875 L 0.984375 -3.296875 L 0.484375 -4.0625 C 0.722656 -4.332031 1.019531 -4.546875 1.375 -4.703125 C 1.726562 -4.859375 2.113281 -4.9375 2.53125 -4.9375 C 3.175781 -4.9375 3.640625 -4.796875 3.921875 -4.515625 C 4.210938 -4.242188 4.359375 -3.859375 4.359375 -3.359375 L 4.359375 -1.265625 C 4.359375 -1.046875 4.453125 -0.9375 4.640625 -0.9375 C 4.710938 -0.9375 4.785156 -0.953125 4.859375 -0.984375 L 4.921875 -0.953125 L 5 -0.109375 C 4.9375 -0.0664062 4.84375 -0.03125 4.71875 0 C 4.601562 0.0195312 4.472656 0.03125 4.328125 0.03125 C 4.035156 0.03125 3.804688 -0.0195312 3.640625 -0.125 C 3.484375 -0.238281 3.367188 -0.414062 3.296875 -0.65625 L 3.21875 -0.65625 C 2.976562 -0.15625 2.535156 0.09375 1.890625 0.09375 Z M 2.265625 -0.8125 C 2.546875 -0.8125 2.769531 -0.90625 2.9375 -1.09375 C 3.113281 -1.28125 3.203125 -1.546875 3.203125 -1.890625 L 3.203125 -2.375 L 3.109375 -2.390625 C 3.035156 -2.335938 2.941406 -2.289062 2.828125 -2.25 C 2.710938 -2.207031 2.539062 -2.164062 2.3125 -2.125 C 2.050781 -2.082031 1.863281 -2.007812 1.75 -1.90625 C 1.632812 -1.800781 1.578125 -1.648438 1.578125 -1.453125 C 1.578125 -1.242188 1.632812 -1.082031 1.75 -0.96875 C 1.875 -0.863281 2.046875 -0.8125 2.265625 -0.8125 Z M 2.265625 -0.8125 "/></g></g><g transform="translate(135.819521, 223.150487)"><g><path d="M 0.703125 0 L 0.703125 -4.84375 L 1.859375 -4.84375 L 1.859375 -4.125 L 1.953125 -4.109375 C 2.253906 -4.660156 2.742188 -4.9375 3.421875 -4.9375 C 3.984375 -4.9375 4.394531 -4.78125 4.65625 -4.46875 C 4.914062 -4.164062 5.046875 -3.722656 5.046875 -3.140625 L 5.046875 0 L 3.828125 0 L 3.828125 -3 C 3.828125 -3.320312 3.757812 -3.550781 3.625 -3.6875 C 3.5 -3.832031 3.296875 -3.90625 3.015625 -3.90625 C 2.671875 -3.90625 2.398438 -3.789062 2.203125 -3.5625 C 2.003906 -3.34375 1.90625 -2.988281 1.90625 -2.5 L 1.90625 0 Z M 0.703125 0 "/></g></g><g transform="translate(141.487745, 223.150487)"><g><path d="M 4.78125 -2.140625 L 1.671875 -2.140625 C 1.703125 -1.722656 1.820312 -1.414062 2.03125 -1.21875 C 2.238281 -1.03125 2.519531 -0.9375 2.875 -0.9375 C 3.144531 -0.9375 3.363281 -0.988281 3.53125 -1.09375 C 3.707031 -1.195312 3.851562 -1.351562 3.96875 -1.5625 L 4.046875 -1.5625 L 4.859375 -1.046875 C 4.703125 -0.710938 4.460938 -0.4375 4.140625 -0.21875 C 3.828125 -0.0078125 3.40625 0.09375 2.875 0.09375 C 2.375 0.09375 1.941406 0 1.578125 -0.1875 C 1.210938 -0.382812 0.929688 -0.671875 0.734375 -1.046875 C 0.535156 -1.421875 0.4375 -1.878906 0.4375 -2.421875 C 0.4375 -2.960938 0.539062 -3.421875 0.75 -3.796875 C 0.957031 -4.179688 1.238281 -4.46875 1.59375 -4.65625 C 1.945312 -4.84375 2.34375 -4.9375 2.78125 -4.9375 C 3.46875 -4.9375 3.992188 -4.753906 4.359375 -4.390625 C 4.722656 -4.023438 4.90625 -3.492188 4.90625 -2.796875 C 4.90625 -2.535156 4.894531 -2.335938 4.875 -2.203125 Z M 3.734375 -2.9375 C 3.722656 -3.300781 3.632812 -3.566406 3.46875 -3.734375 C 3.3125 -3.898438 3.082031 -3.984375 2.78125 -3.984375 C 2.164062 -3.984375 1.804688 -3.632812 1.703125 -2.9375 Z M 3.734375 -2.9375 "/></g></g><g transform="translate(146.747962, 223.150487)"><g><path d="M 1.890625 0.09375 C 1.578125 0.09375 1.304688 0.0351562 1.078125 -0.078125 C 0.847656 -0.191406 0.671875 -0.359375 0.546875 -0.578125 C 0.429688 -0.796875 0.375 -1.0625 0.375 -1.375 C 0.375 -1.664062 0.429688 -1.90625 0.546875 -2.09375 C 0.671875 -2.289062 0.863281 -2.453125 1.125 -2.578125 C 1.382812 -2.703125 1.71875 -2.796875 2.125 -2.859375 C 2.414062 -2.910156 2.632812 -2.960938 2.78125 -3.015625 C 2.9375 -3.066406 3.039062 -3.128906 3.09375 -3.203125 C 3.144531 -3.273438 3.171875 -3.363281 3.171875 -3.46875 C 3.171875 -3.625 3.113281 -3.742188 3 -3.828125 C 2.894531 -3.910156 2.71875 -3.953125 2.46875 -3.953125 C 2.207031 -3.953125 1.953125 -3.890625 1.703125 -3.765625 C 1.460938 -3.648438 1.253906 -3.492188 1.078125 -3.296875 L 0.984375 -3.296875 L 0.484375 -4.0625 C 0.722656 -4.332031 1.019531 -4.546875 1.375 -4.703125 C 1.726562 -4.859375 2.113281 -4.9375 2.53125 -4.9375 C 3.175781 -4.9375 3.640625 -4.796875 3.921875 -4.515625 C 4.210938 -4.242188 4.359375 -3.859375 4.359375 -3.359375 L 4.359375 -1.265625 C 4.359375 -1.046875 4.453125 -0.9375 4.640625 -0.9375 C 4.710938 -0.9375 4.785156 -0.953125 4.859375 -0.984375 L 4.921875 -0.953125 L 5 -0.109375 C 4.9375 -0.0664062 4.84375 -0.03125 4.71875 0 C 4.601562 0.0195312 4.472656 0.03125 4.328125 0.03125 C 4.035156 0.03125 3.804688 -0.0195312 3.640625 -0.125 C 3.484375 -0.238281 3.367188 -0.414062 3.296875 -0.65625 L 3.21875 -0.65625 C 2.976562 -0.15625 2.535156 0.09375 1.890625 0.09375 Z M 2.265625 -0.8125 C 2.546875 -0.8125 2.769531 -0.90625 2.9375 -1.09375 C 3.113281 -1.28125 3.203125 -1.546875 3.203125 -1.890625 L 3.203125 -2.375 L 3.109375 -2.390625 C 3.035156 -2.335938 2.941406 -2.289062 2.828125 -2.25 C 2.710938 -2.207031 2.539062 -2.164062 2.3125 -2.125 C 2.050781 -2.082031 1.863281 -2.007812 1.75 -1.90625 C 1.632812 -1.800781 1.578125 -1.648438 1.578125 -1.453125 C 1.578125 -1.242188 1.632812 -1.082031 1.75 -0.96875 C 1.875 -0.863281 2.046875 -0.8125 2.265625 -0.8125 Z M 2.265625 -0.8125 "/></g></g><g transform="translate(151.85024, 223.150487)"><g><path d="M 2.828125 0.09375 C 2.359375 0.09375 1.941406 0 1.578125 -0.1875 C 1.222656 -0.382812 0.941406 -0.671875 0.734375 -1.046875 C 0.535156 -1.429688 0.4375 -1.890625 0.4375 -2.421875 C 0.4375 -2.953125 0.535156 -3.40625 0.734375 -3.78125 C 0.941406 -4.15625 1.222656 -4.441406 1.578125 -4.640625 C 1.929688 -4.835938 2.335938 -4.9375 2.796875 -4.9375 C 3.816406 -4.9375 4.472656 -4.566406 4.765625 -3.828125 L 3.921875 -3.21875 L 3.828125 -3.21875 C 3.734375 -3.445312 3.601562 -3.617188 3.4375 -3.734375 C 3.28125 -3.847656 3.066406 -3.90625 2.796875 -3.90625 C 2.441406 -3.90625 2.164062 -3.78125 1.96875 -3.53125 C 1.78125 -3.289062 1.6875 -2.921875 1.6875 -2.421875 C 1.6875 -1.921875 1.785156 -1.546875 1.984375 -1.296875 C 2.179688 -1.054688 2.460938 -0.9375 2.828125 -0.9375 C 3.085938 -0.9375 3.304688 -1.003906 3.484375 -1.140625 C 3.671875 -1.285156 3.800781 -1.492188 3.875 -1.765625 L 3.96875 -1.765625 L 4.84375 -1.296875 C 4.71875 -0.890625 4.488281 -0.554688 4.15625 -0.296875 C 3.820312 -0.0351562 3.378906 0.09375 2.828125 0.09375 Z M 2.828125 0.09375 "/></g></g><g transform="translate(156.838452, 223.150487)"><g><path d="M 1.296875 -5.421875 C 1.078125 -5.421875 0.898438 -5.484375 0.765625 -5.609375 C 0.628906 -5.742188 0.5625 -5.921875 0.5625 -6.140625 C 0.5625 -6.335938 0.628906 -6.503906 0.765625 -6.640625 C 0.898438 -6.773438 1.078125 -6.84375 1.296875 -6.84375 C 1.441406 -6.84375 1.570312 -6.8125 1.6875 -6.75 C 1.800781 -6.6875 1.890625 -6.601562 1.953125 -6.5 C 2.015625 -6.394531 2.046875 -6.273438 2.046875 -6.140625 C 2.046875 -5.992188 2.015625 -5.867188 1.953125 -5.765625 C 1.890625 -5.660156 1.800781 -5.578125 1.6875 -5.515625 C 1.570312 -5.453125 1.441406 -5.421875 1.296875 -5.421875 Z M 0.703125 0 L 0.703125 -4.84375 L 1.90625 -4.84375 L 1.90625 0 Z M 0.703125 0 "/></g></g><g transform="translate(159.444431, 223.150487)"><g><path d="M 2.8125 0.09375 C 2.332031 0.09375 1.914062 0 1.5625 -0.1875 C 1.207031 -0.382812 0.929688 -0.671875 0.734375 -1.046875 C 0.535156 -1.429688 0.4375 -1.890625 0.4375 -2.421875 C 0.4375 -2.953125 0.535156 -3.40625 0.734375 -3.78125 C 0.929688 -4.15625 1.207031 -4.441406 1.5625 -4.640625 C 1.914062 -4.835938 2.332031 -4.9375 2.8125 -4.9375 C 3.28125 -4.9375 3.691406 -4.835938 4.046875 -4.640625 C 4.410156 -4.441406 4.691406 -4.15625 4.890625 -3.78125 C 5.085938 -3.40625 5.1875 -2.953125 5.1875 -2.421875 C 5.1875 -1.890625 5.085938 -1.429688 4.890625 -1.046875 C 4.691406 -0.671875 4.410156 -0.382812 4.046875 -0.1875 C 3.691406 0 3.28125 0.09375 2.8125 0.09375 Z M 2.8125 -0.9375 C 3.5625 -0.9375 3.9375 -1.429688 3.9375 -2.421875 C 3.9375 -2.929688 3.835938 -3.304688 3.640625 -3.546875 C 3.453125 -3.785156 3.175781 -3.90625 2.8125 -3.90625 C 2.0625 -3.90625 1.6875 -3.410156 1.6875 -2.421875 C 1.6875 -1.429688 2.0625 -0.9375 2.8125 -0.9375 Z M 3.1875 -5.328125 L 2.359375 -5.328125 L 2.359375 -5.40625 L 3 -6.78125 L 4.359375 -6.78125 L 4.359375 -6.6875 Z M 3.1875 -5.328125 "/></g></g><g transform="translate(165.068783, 223.150487)"><g><path d="M 0.703125 0 L 0.703125 -4.84375 L 1.859375 -4.84375 L 1.859375 -4.125 L 1.953125 -4.109375 C 2.253906 -4.660156 2.742188 -4.9375 3.421875 -4.9375 C 3.984375 -4.9375 4.394531 -4.78125 4.65625 -4.46875 C 4.914062 -4.164062 5.046875 -3.722656 5.046875 -3.140625 L 5.046875 0 L 3.828125 0 L 3.828125 -3 C 3.828125 -3.320312 3.757812 -3.550781 3.625 -3.6875 C 3.5 -3.832031 3.296875 -3.90625 3.015625 -3.90625 C 2.671875 -3.90625 2.398438 -3.789062 2.203125 -3.5625 C 2.003906 -3.34375 1.90625 -2.988281 1.90625 -2.5 L 1.90625 0 Z M 0.703125 0 "/></g></g></g><g fill="#000000" fill-opacity="1"><g transform="translate(120.647225, 235.130386)"><g/></g></g><g fill="#000000" fill-opacity="1"><g transform="translate(122.766228, 235.130386)"><g><path d="M 2.09375 -2.8125 L 2.09375 -1.0625 L 5.15625 -1.0625 L 5.15625 0 L 0.828125 0 L 0.828125 -6.40625 L 5.09375 -6.40625 L 5.09375 -5.359375 L 2.09375 -5.359375 L 2.09375 -3.859375 L 4.71875 -3.859375 L 4.71875 -2.8125 Z M 2.09375 -2.8125 "/></g></g><g transform="translate(128.280901, 235.130386)"><g><path d="M 2.265625 0.09375 C 1.929688 0.09375 1.625 0.0546875 1.34375 -0.015625 C 1.070312 -0.0976562 0.835938 -0.207031 0.640625 -0.34375 C 0.453125 -0.476562 0.3125 -0.632812 0.21875 -0.8125 L 0.890625 -1.546875 L 0.984375 -1.546875 C 1.148438 -1.328125 1.34375 -1.160156 1.5625 -1.046875 C 1.78125 -0.941406 2.015625 -0.890625 2.265625 -0.890625 C 2.503906 -0.890625 2.679688 -0.929688 2.796875 -1.015625 C 2.921875 -1.097656 2.984375 -1.21875 2.984375 -1.375 C 2.984375 -1.5 2.941406 -1.601562 2.859375 -1.6875 C 2.773438 -1.769531 2.632812 -1.835938 2.4375 -1.890625 L 1.796875 -2.046875 C 1.316406 -2.160156 0.96875 -2.332031 0.75 -2.5625 C 0.53125 -2.800781 0.421875 -3.101562 0.421875 -3.46875 C 0.421875 -3.757812 0.492188 -4.015625 0.640625 -4.234375 C 0.796875 -4.460938 1.015625 -4.632812 1.296875 -4.75 C 1.578125 -4.875 1.898438 -4.9375 2.265625 -4.9375 C 2.703125 -4.9375 3.0625 -4.867188 3.34375 -4.734375 C 3.632812 -4.609375 3.863281 -4.441406 4.03125 -4.234375 L 3.375 -3.53125 L 3.296875 -3.53125 C 3.160156 -3.6875 3.003906 -3.796875 2.828125 -3.859375 C 2.660156 -3.929688 2.472656 -3.96875 2.265625 -3.96875 C 1.785156 -3.96875 1.546875 -3.820312 1.546875 -3.53125 C 1.546875 -3.40625 1.59375 -3.300781 1.6875 -3.21875 C 1.78125 -3.132812 1.9375 -3.070312 2.15625 -3.03125 L 2.75 -2.890625 C 3.238281 -2.785156 3.597656 -2.617188 3.828125 -2.390625 C 4.054688 -2.160156 4.171875 -1.847656 4.171875 -1.453125 C 4.171875 -1.140625 4.09375 -0.867188 3.9375 -0.640625 C 3.789062 -0.410156 3.570312 -0.226562 3.28125 -0.09375 C 3 0.03125 2.660156 0.09375 2.265625 0.09375 Z M 2.265625 0.09375 "/></g></g><g transform="translate(132.742653, 235.130386)"><g><path d="M 3.34375 -1.15625 L 3.65625 -0.25 C 3.519531 -0.144531 3.351562 -0.0625 3.15625 0 C 2.957031 0.0625 2.734375 0.09375 2.484375 0.09375 C 1.960938 0.09375 1.5625 -0.046875 1.28125 -0.328125 C 1.007812 -0.617188 0.875 -1.035156 0.875 -1.578125 L 0.875 -3.875 L 0.140625 -3.875 L 0.140625 -4.84375 L 0.875 -4.84375 L 0.875 -5.78125 L 2.09375 -5.984375 L 2.09375 -4.84375 L 3.46875 -4.84375 L 3.46875 -3.875 L 2.09375 -3.875 L 2.09375 -1.671875 C 2.09375 -1.429688 2.140625 -1.253906 2.234375 -1.140625 C 2.335938 -1.035156 2.488281 -0.984375 2.6875 -0.984375 C 2.894531 -0.984375 3.082031 -1.039062 3.25 -1.15625 Z M 3.34375 -1.15625 "/></g></g><g transform="translate(136.502457, 235.130386)"><g><path d="M 0.703125 0 L 0.703125 -4.84375 L 1.875 -4.84375 L 1.875 -4.125 L 1.96875 -4.109375 C 2.082031 -4.367188 2.234375 -4.5625 2.421875 -4.6875 C 2.617188 -4.8125 2.851562 -4.875 3.125 -4.875 C 3.394531 -4.875 3.601562 -4.832031 3.75 -4.75 L 3.546875 -3.6875 L 3.453125 -3.671875 C 3.367188 -3.703125 3.289062 -3.722656 3.21875 -3.734375 C 3.144531 -3.753906 3.054688 -3.765625 2.953125 -3.765625 C 2.617188 -3.765625 2.359375 -3.644531 2.171875 -3.40625 C 1.992188 -3.164062 1.90625 -2.785156 1.90625 -2.265625 L 1.90625 0 Z M 0.703125 0 "/></g></g><g transform="translate(140.297359, 235.130386)"><g><path d="M 1.890625 0.09375 C 1.578125 0.09375 1.304688 0.0351562 1.078125 -0.078125 C 0.847656 -0.191406 0.671875 -0.359375 0.546875 -0.578125 C 0.429688 -0.796875 0.375 -1.0625 0.375 -1.375 C 0.375 -1.664062 0.429688 -1.90625 0.546875 -2.09375 C 0.671875 -2.289062 0.863281 -2.453125 1.125 -2.578125 C 1.382812 -2.703125 1.71875 -2.796875 2.125 -2.859375 C 2.414062 -2.910156 2.632812 -2.960938 2.78125 -3.015625 C 2.9375 -3.066406 3.039062 -3.128906 3.09375 -3.203125 C 3.144531 -3.273438 3.171875 -3.363281 3.171875 -3.46875 C 3.171875 -3.625 3.113281 -3.742188 3 -3.828125 C 2.894531 -3.910156 2.71875 -3.953125 2.46875 -3.953125 C 2.207031 -3.953125 1.953125 -3.890625 1.703125 -3.765625 C 1.460938 -3.648438 1.253906 -3.492188 1.078125 -3.296875 L 0.984375 -3.296875 L 0.484375 -4.0625 C 0.722656 -4.332031 1.019531 -4.546875 1.375 -4.703125 C 1.726562 -4.859375 2.113281 -4.9375 2.53125 -4.9375 C 3.175781 -4.9375 3.640625 -4.796875 3.921875 -4.515625 C 4.210938 -4.242188 4.359375 -3.859375 4.359375 -3.359375 L 4.359375 -1.265625 C 4.359375 -1.046875 4.453125 -0.9375 4.640625 -0.9375 C 4.710938 -0.9375 4.785156 -0.953125 4.859375 -0.984375 L 4.921875 -0.953125 L 5 -0.109375 C 4.9375 -0.0664062 4.84375 -0.03125 4.71875 0 C 4.601562 0.0195312 4.472656 0.03125 4.328125 0.03125 C 4.035156 0.03125 3.804688 -0.0195312 3.640625 -0.125 C 3.484375 -0.238281 3.367188 -0.414062 3.296875 -0.65625 L 3.21875 -0.65625 C 2.976562 -0.15625 2.535156 0.09375 1.890625 0.09375 Z M 2.265625 -0.8125 C 2.546875 -0.8125 2.769531 -0.90625 2.9375 -1.09375 C 3.113281 -1.28125 3.203125 -1.546875 3.203125 -1.890625 L 3.203125 -2.375 L 3.109375 -2.390625 C 3.035156 -2.335938 2.941406 -2.289062 2.828125 -2.25 C 2.710938 -2.207031 2.539062 -2.164062 2.3125 -2.125 C 2.050781 -2.082031 1.863281 -2.007812 1.75 -1.90625 C 1.632812 -1.800781 1.578125 -1.648438 1.578125 -1.453125 C 1.578125 -1.242188 1.632812 -1.082031 1.75 -0.96875 C 1.875 -0.863281 2.046875 -0.8125 2.265625 -0.8125 Z M 2.265625 -0.8125 "/></g></g><g transform="translate(145.399638, 235.130386)"><g><path d="M 3.34375 -1.15625 L 3.65625 -0.25 C 3.519531 -0.144531 3.351562 -0.0625 3.15625 0 C 2.957031 0.0625 2.734375 0.09375 2.484375 0.09375 C 1.960938 0.09375 1.5625 -0.046875 1.28125 -0.328125 C 1.007812 -0.617188 0.875 -1.035156 0.875 -1.578125 L 0.875 -3.875 L 0.140625 -3.875 L 0.140625 -4.84375 L 0.875 -4.84375 L 0.875 -5.78125 L 2.09375 -5.984375 L 2.09375 -4.84375 L 3.46875 -4.84375 L 3.46875 -3.875 L 2.09375 -3.875 L 2.09375 -1.671875 C 2.09375 -1.429688 2.140625 -1.253906 2.234375 -1.140625 C 2.335938 -1.035156 2.488281 -0.984375 2.6875 -0.984375 C 2.894531 -0.984375 3.082031 -1.039062 3.25 -1.15625 Z M 3.34375 -1.15625 "/></g></g><g transform="translate(149.159443, 235.130386)"><g><path d="M 4.78125 -2.140625 L 1.671875 -2.140625 C 1.703125 -1.722656 1.820312 -1.414062 2.03125 -1.21875 C 2.238281 -1.03125 2.519531 -0.9375 2.875 -0.9375 C 3.144531 -0.9375 3.363281 -0.988281 3.53125 -1.09375 C 3.707031 -1.195312 3.851562 -1.351562 3.96875 -1.5625 L 4.046875 -1.5625 L 4.859375 -1.046875 C 4.703125 -0.710938 4.460938 -0.4375 4.140625 -0.21875 C 3.828125 -0.0078125 3.40625 0.09375 2.875 0.09375 C 2.375 0.09375 1.941406 0 1.578125 -0.1875 C 1.210938 -0.382812 0.929688 -0.671875 0.734375 -1.046875 C 0.535156 -1.421875 0.4375 -1.878906 0.4375 -2.421875 C 0.4375 -2.960938 0.539062 -3.421875 0.75 -3.796875 C 0.957031 -4.179688 1.238281 -4.46875 1.59375 -4.65625 C 1.945312 -4.84375 2.34375 -4.9375 2.78125 -4.9375 C 3.46875 -4.9375 3.992188 -4.753906 4.359375 -4.390625 C 4.722656 -4.023438 4.90625 -3.492188 4.90625 -2.796875 C 4.90625 -2.535156 4.894531 -2.335938 4.875 -2.203125 Z M 3.734375 -2.9375 C 3.722656 -3.300781 3.632812 -3.566406 3.46875 -3.734375 C 3.3125 -3.898438 3.082031 -3.984375 2.78125 -3.984375 C 2.164062 -3.984375 1.804688 -3.632812 1.703125 -2.9375 Z M 3.15625 -5.328125 L 2.328125 -5.328125 L 2.328125 -5.40625 L 2.96875 -6.78125 L 4.328125 -6.78125 L 4.328125 -6.6875 Z M 3.15625 -5.328125 "/></g></g><g transform="translate(154.419659, 235.130386)"><g><path d="M 2.515625 2.046875 C 1.710938 2.046875 1.117188 1.925781 0.734375 1.6875 C 0.359375 1.457031 0.171875 1.132812 0.171875 0.71875 C 0.171875 0.46875 0.25 0.257812 0.40625 0.09375 C 0.570312 -0.0625 0.804688 -0.171875 1.109375 -0.234375 L 1.109375 -0.3125 C 0.953125 -0.414062 0.835938 -0.523438 0.765625 -0.640625 C 0.691406 -0.765625 0.65625 -0.910156 0.65625 -1.078125 C 0.65625 -1.460938 0.90625 -1.722656 1.40625 -1.859375 L 1.40625 -1.953125 C 1.144531 -2.097656 0.945312 -2.28125 0.8125 -2.5 C 0.6875 -2.726562 0.625 -3 0.625 -3.3125 C 0.625 -3.632812 0.695312 -3.914062 0.84375 -4.15625 C 1 -4.394531 1.21875 -4.582031 1.5 -4.71875 C 1.78125 -4.863281 2.117188 -4.9375 2.515625 -4.9375 C 2.921875 -4.9375 3.242188 -4.863281 3.484375 -4.71875 C 3.640625 -4.9375 3.726562 -5.1875 3.75 -5.46875 L 3.84375 -5.53125 L 4.71875 -5.3125 C 4.6875 -5.082031 4.613281 -4.890625 4.5 -4.734375 C 4.394531 -4.578125 4.226562 -4.4375 4 -4.3125 L 4 -4.21875 C 4.269531 -3.976562 4.40625 -3.644531 4.40625 -3.21875 C 4.40625 -2.914062 4.332031 -2.644531 4.1875 -2.40625 C 4.039062 -2.164062 3.820312 -1.976562 3.53125 -1.84375 C 3.25 -1.707031 2.910156 -1.640625 2.515625 -1.640625 L 2.34375 -1.640625 C 2.21875 -1.648438 2.132812 -1.65625 2.09375 -1.65625 C 1.976562 -1.65625 1.890625 -1.625 1.828125 -1.5625 C 1.765625 -1.5 1.734375 -1.421875 1.734375 -1.328125 C 1.734375 -1.234375 1.773438 -1.15625 1.859375 -1.09375 C 1.941406 -1.039062 2.0625 -1.007812 2.21875 -1 L 3.296875 -0.953125 C 4.367188 -0.921875 4.90625 -0.460938 4.90625 0.421875 C 4.90625 0.734375 4.828125 1.007812 4.671875 1.25 C 4.515625 1.5 4.253906 1.691406 3.890625 1.828125 C 3.535156 1.972656 3.078125 2.046875 2.515625 2.046875 Z M 2.515625 -2.484375 C 2.753906 -2.484375 2.9375 -2.550781 3.0625 -2.6875 C 3.195312 -2.832031 3.265625 -3.03125 3.265625 -3.28125 C 3.265625 -3.539062 3.195312 -3.738281 3.0625 -3.875 C 2.9375 -4.007812 2.753906 -4.078125 2.515625 -4.078125 C 2.285156 -4.078125 2.101562 -4.007812 1.96875 -3.875 C 1.84375 -3.738281 1.78125 -3.539062 1.78125 -3.28125 C 1.78125 -3.03125 1.84375 -2.832031 1.96875 -2.6875 C 2.101562 -2.550781 2.285156 -2.484375 2.515625 -2.484375 Z M 2.515625 1.171875 C 2.921875 1.171875 3.21875 1.113281 3.40625 1 C 3.601562 0.882812 3.703125 0.734375 3.703125 0.546875 C 3.703125 0.390625 3.648438 0.273438 3.546875 0.203125 C 3.453125 0.128906 3.300781 0.09375 3.09375 0.09375 L 2.140625 0.046875 C 2.109375 0.046875 2.078125 0.0390625 2.046875 0.03125 C 2.015625 0.03125 1.988281 0.03125 1.96875 0.03125 C 1.757812 0.03125 1.601562 0.0703125 1.5 0.15625 C 1.394531 0.25 1.34375 0.375 1.34375 0.53125 C 1.34375 0.738281 1.4375 0.894531 1.625 1 C 1.820312 1.113281 2.117188 1.171875 2.515625 1.171875 Z M 2.515625 1.171875 "/></g></g><g transform="translate(159.451743, 235.130386)"><g><path d="M 1.296875 -5.421875 C 1.078125 -5.421875 0.898438 -5.484375 0.765625 -5.609375 C 0.628906 -5.742188 0.5625 -5.921875 0.5625 -6.140625 C 0.5625 -6.335938 0.628906 -6.503906 0.765625 -6.640625 C 0.898438 -6.773438 1.078125 -6.84375 1.296875 -6.84375 C 1.441406 -6.84375 1.570312 -6.8125 1.6875 -6.75 C 1.800781 -6.6875 1.890625 -6.601562 1.953125 -6.5 C 2.015625 -6.394531 2.046875 -6.273438 2.046875 -6.140625 C 2.046875 -5.992188 2.015625 -5.867188 1.953125 -5.765625 C 1.890625 -5.660156 1.800781 -5.578125 1.6875 -5.515625 C 1.570312 -5.453125 1.441406 -5.421875 1.296875 -5.421875 Z M 0.703125 0 L 0.703125 -4.84375 L 1.90625 -4.84375 L 1.90625 0 Z M 0.703125 0 "/></g></g><g transform="translate(162.057722, 235.130386)"><g><path d="M 2.828125 0.09375 C 2.359375 0.09375 1.941406 0 1.578125 -0.1875 C 1.222656 -0.382812 0.941406 -0.671875 0.734375 -1.046875 C 0.535156 -1.429688 0.4375 -1.890625 0.4375 -2.421875 C 0.4375 -2.953125 0.535156 -3.40625 0.734375 -3.78125 C 0.941406 -4.15625 1.222656 -4.441406 1.578125 -4.640625 C 1.929688 -4.835938 2.335938 -4.9375 2.796875 -4.9375 C 3.816406 -4.9375 4.472656 -4.566406 4.765625 -3.828125 L 3.921875 -3.21875 L 3.828125 -3.21875 C 3.734375 -3.445312 3.601562 -3.617188 3.4375 -3.734375 C 3.28125 -3.847656 3.066406 -3.90625 2.796875 -3.90625 C 2.441406 -3.90625 2.164062 -3.78125 1.96875 -3.53125 C 1.78125 -3.289062 1.6875 -2.921875 1.6875 -2.421875 C 1.6875 -1.921875 1.785156 -1.546875 1.984375 -1.296875 C 2.179688 -1.054688 2.460938 -0.9375 2.828125 -0.9375 C 3.085938 -0.9375 3.304688 -1.003906 3.484375 -1.140625 C 3.671875 -1.285156 3.800781 -1.492188 3.875 -1.765625 L 3.96875 -1.765625 L 4.84375 -1.296875 C 4.71875 -0.890625 4.488281 -0.554688 4.15625 -0.296875 C 3.820312 -0.0351562 3.378906 0.09375 2.828125 0.09375 Z M 2.828125 0.09375 "/></g></g><g transform="translate(167.045934, 235.130386)"><g><path d="M 1.890625 0.09375 C 1.578125 0.09375 1.304688 0.0351562 1.078125 -0.078125 C 0.847656 -0.191406 0.671875 -0.359375 0.546875 -0.578125 C 0.429688 -0.796875 0.375 -1.0625 0.375 -1.375 C 0.375 -1.664062 0.429688 -1.90625 0.546875 -2.09375 C 0.671875 -2.289062 0.863281 -2.453125 1.125 -2.578125 C 1.382812 -2.703125 1.71875 -2.796875 2.125 -2.859375 C 2.414062 -2.910156 2.632812 -2.960938 2.78125 -3.015625 C 2.9375 -3.066406 3.039062 -3.128906 3.09375 -3.203125 C 3.144531 -3.273438 3.171875 -3.363281 3.171875 -3.46875 C 3.171875 -3.625 3.113281 -3.742188 3 -3.828125 C 2.894531 -3.910156 2.71875 -3.953125 2.46875 -3.953125 C 2.207031 -3.953125 1.953125 -3.890625 1.703125 -3.765625 C 1.460938 -3.648438 1.253906 -3.492188 1.078125 -3.296875 L 0.984375 -3.296875 L 0.484375 -4.0625 C 0.722656 -4.332031 1.019531 -4.546875 1.375 -4.703125 C 1.726562 -4.859375 2.113281 -4.9375 2.53125 -4.9375 C 3.175781 -4.9375 3.640625 -4.796875 3.921875 -4.515625 C 4.210938 -4.242188 4.359375 -3.859375 4.359375 -3.359375 L 4.359375 -1.265625 C 4.359375 -1.046875 4.453125 -0.9375 4.640625 -0.9375 C 4.710938 -0.9375 4.785156 -0.953125 4.859375 -0.984375 L 4.921875 -0.953125 L 5 -0.109375 C 4.9375 -0.0664062 4.84375 -0.03125 4.71875 0 C 4.601562 0.0195312 4.472656 0.03125 4.328125 0.03125 C 4.035156 0.03125 3.804688 -0.0195312 3.640625 -0.125 C 3.484375 -0.238281 3.367188 -0.414062 3.296875 -0.65625 L 3.21875 -0.65625 C 2.976562 -0.15625 2.535156 0.09375 1.890625 0.09375 Z M 2.265625 -0.8125 C 2.546875 -0.8125 2.769531 -0.90625 2.9375 -1.09375 C 3.113281 -1.28125 3.203125 -1.546875 3.203125 -1.890625 L 3.203125 -2.375 L 3.109375 -2.390625 C 3.035156 -2.335938 2.941406 -2.289062 2.828125 -2.25 C 2.710938 -2.207031 2.539062 -2.164062 2.3125 -2.125 C 2.050781 -2.082031 1.863281 -2.007812 1.75 -1.90625 C 1.632812 -1.800781 1.578125 -1.648438 1.578125 -1.453125 C 1.578125 -1.242188 1.632812 -1.082031 1.75 -0.96875 C 1.875 -0.863281 2.046875 -0.8125 2.265625 -0.8125 Z M 2.265625 -0.8125 "/></g></g></g></svg>